M48
; DRILL file {KiCad (6.0.2-0)} date Thursday, October 19, 2023 at 05:34:14 PM
; FORMAT={-:-/ absolute / inch / decimal}
; #@! TF.CreationDate,2023-10-19T17:34:14-05:00
; #@! TF.GenerationSoftware,Kicad,Pcbnew,(6.0.2-0)
; #@! TF.FileFunction,NonPlated,1,2,NPTH
FMAT,2
INCH
; #@! TA.AperFunction,NonPlated,NPTH,ComponentDrill
T1C0.0197
; #@! TA.AperFunction,NonPlated,NPTH,ComponentDrill
T2C0.0669
%
G90
G05
T1
X2.3484Y-2.1437
X2.3484Y-2.1732
X2.3484Y-2.2028
X2.3484Y-2.2323
X2.3484Y-2.2618
X2.3484Y-2.2913
X2.3484Y-2.3209
X2.3484Y-2.3504
X2.3484Y-2.3799
X2.3484Y-2.4094
X2.3484Y-2.439
X2.3484Y-2.4705
X2.3484Y-2.5
X2.3484Y-2.5295
X2.3484Y-2.5591
X2.3484Y-2.5886
X2.3484Y-2.6181
X2.3484Y-2.6476
X2.3484Y-2.6772
X2.3484Y-2.7067
X2.3484Y-2.7382
X2.3484Y-2.7677
X2.3484Y-2.7972
X2.3484Y-2.8268
X2.3484Y-2.8563
X2.3484Y-2.8858
X2.3484Y-2.9154
X2.3484Y-2.9449
X2.3484Y-2.9744
X2.378Y-2.5591
X2.4075Y-2.5591
X2.437Y-2.5591
X2.4665Y-2.5591
X2.4961Y-2.5591
X2.5256Y-2.5591
X2.5551Y-2.5591
X2.5846Y-2.5591
X2.5846Y-2.5591
X2.6142Y-2.5591
X2.6437Y-2.5591
X2.6732Y-2.5591
T2
X2.0669Y-2.3819
X2.0669Y-2.6575
T0
M30
