%TF.GenerationSoftware,KiCad,Pcbnew,(6.0.2-0)*%
%TF.CreationDate,2023-10-19T17:34:18-05:00*%
%TF.ProjectId,airsticks_pcb,61697273-7469-4636-9b73-5f7063622e6b,rev?*%
%TF.SameCoordinates,Original*%
%TF.FileFunction,Copper,L2,Bot*%
%TF.FilePolarity,Positive*%
%FSLAX46Y46*%
G04 Gerber Fmt 4.6, Leading zero omitted, Abs format (unit mm)*
G04 Created by KiCad (PCBNEW (6.0.2-0)) date 2023-10-19 17:34:18*
%MOMM*%
%LPD*%
G01*
G04 APERTURE LIST*
G04 Aperture macros list*
%AMRoundRect*
0 Rectangle with rounded corners*
0 $1 Rounding radius*
0 $2 $3 $4 $5 $6 $7 $8 $9 X,Y pos of 4 corners*
0 Add a 4 corners polygon primitive as box body*
4,1,4,$2,$3,$4,$5,$6,$7,$8,$9,$2,$3,0*
0 Add four circle primitives for the rounded corners*
1,1,$1+$1,$2,$3*
1,1,$1+$1,$4,$5*
1,1,$1+$1,$6,$7*
1,1,$1+$1,$8,$9*
0 Add four rect primitives between the rounded corners*
20,1,$1+$1,$2,$3,$4,$5,0*
20,1,$1+$1,$4,$5,$6,$7,0*
20,1,$1+$1,$6,$7,$8,$9,0*
20,1,$1+$1,$8,$9,$2,$3,0*%
%AMFreePoly0*
4,1,6,1.000000,0.000000,0.500000,-0.750000,-0.500000,-0.750000,-0.500000,0.750000,0.500000,0.750000,1.000000,0.000000,1.000000,0.000000,$1*%
%AMFreePoly1*
4,1,6,0.500000,-0.750000,-0.650000,-0.750000,-0.150000,0.000000,-0.650000,0.750000,0.500000,0.750000,0.500000,-0.750000,0.500000,-0.750000,$1*%
G04 Aperture macros list end*
%TA.AperFunction,ComponentPad*%
%ADD10C,1.700000*%
%TD*%
%TA.AperFunction,ComponentPad*%
%ADD11C,0.700000*%
%TD*%
%TA.AperFunction,ComponentPad*%
%ADD12O,0.900000X1.700000*%
%TD*%
%TA.AperFunction,ComponentPad*%
%ADD13O,0.900000X2.400000*%
%TD*%
%TA.AperFunction,ComponentPad*%
%ADD14R,1.700000X1.700000*%
%TD*%
%TA.AperFunction,ComponentPad*%
%ADD15O,1.700000X1.700000*%
%TD*%
%TA.AperFunction,SMDPad,CuDef*%
%ADD16FreePoly0,180.000000*%
%TD*%
%TA.AperFunction,SMDPad,CuDef*%
%ADD17FreePoly1,180.000000*%
%TD*%
%TA.AperFunction,SMDPad,CuDef*%
%ADD18RoundRect,0.250000X0.337500X0.475000X-0.337500X0.475000X-0.337500X-0.475000X0.337500X-0.475000X0*%
%TD*%
%TA.AperFunction,SMDPad,CuDef*%
%ADD19RoundRect,0.250000X-0.337500X-0.475000X0.337500X-0.475000X0.337500X0.475000X-0.337500X0.475000X0*%
%TD*%
%TA.AperFunction,ViaPad*%
%ADD20C,0.800000*%
%TD*%
%TA.AperFunction,Conductor*%
%ADD21C,0.200000*%
%TD*%
%TA.AperFunction,Conductor*%
%ADD22C,0.250000*%
%TD*%
G04 APERTURE END LIST*
D10*
%TO.P,,1,Pin_1*%
%TO.N,+3V3*%
X57625000Y-72375000D03*
%TD*%
D11*
%TO.P,J1,A1,GND*%
%TO.N,GND*%
X28225000Y-63275000D03*
%TO.P,J1,A4,VBUS*%
%TO.N,+5V*%
X27375000Y-63275000D03*
%TO.P,J1,A5,CC1*%
%TO.N,unconnected-(J1-PadA5)*%
X26525000Y-63275000D03*
%TO.P,J1,A6,D+*%
%TO.N,unconnected-(J1-PadA6)*%
X25675000Y-63275000D03*
%TO.P,J1,A7,D-*%
%TO.N,unconnected-(J1-PadA7)*%
X24825000Y-63275000D03*
%TO.P,J1,A8,SBU1*%
%TO.N,unconnected-(J1-PadA8)*%
X23975000Y-63275000D03*
%TO.P,J1,A9,VBUS*%
%TO.N,+5V*%
X23125000Y-63275000D03*
%TO.P,J1,A12,GND*%
%TO.N,GND*%
X22275000Y-63275000D03*
%TO.P,J1,B1,GND*%
X22275000Y-61925000D03*
%TO.P,J1,B4,VBUS*%
%TO.N,+5V*%
X23125000Y-61925000D03*
%TO.P,J1,B5,CC2*%
%TO.N,unconnected-(J1-PadB5)*%
X23975000Y-61925000D03*
%TO.P,J1,B6,D+*%
%TO.N,unconnected-(J1-PadB6)*%
X24825000Y-61925000D03*
%TO.P,J1,B7,D-*%
%TO.N,unconnected-(J1-PadB7)*%
X25675000Y-61925000D03*
%TO.P,J1,B8,SBU2*%
%TO.N,unconnected-(J1-PadB8)*%
X26525000Y-61925000D03*
%TO.P,J1,B9,VBUS*%
%TO.N,+5V*%
X27375000Y-61925000D03*
%TO.P,J1,B12,GND*%
%TO.N,GND*%
X28225000Y-61925000D03*
D12*
%TO.P,J1,S1,SHIELD*%
X20925000Y-58915000D03*
X29575000Y-58915000D03*
D13*
X29575000Y-62295000D03*
X20925000Y-62295000D03*
%TD*%
D14*
%TO.P,J3,1,Pin_1*%
%TO.N,unconnected-(J3-Pad1)*%
X21850000Y-73600000D03*
D15*
%TO.P,J3,2,Pin_2*%
%TO.N,/RX*%
X24390000Y-73600000D03*
%TO.P,J3,3,Pin_3*%
%TO.N,/TX*%
X26930000Y-73600000D03*
%TO.P,J3,4,Pin_4*%
%TO.N,unconnected-(J3-Pad4)*%
X29470000Y-73600000D03*
%TO.P,J3,5,Pin_5*%
%TO.N,unconnected-(J3-Pad5)*%
X32010000Y-73600000D03*
%TO.P,J3,6,Pin_6*%
%TO.N,GND*%
X34550000Y-73600000D03*
%TD*%
D10*
%TO.P,,1,Pin_1*%
%TO.N,+3V3*%
X61850000Y-74475000D03*
%TD*%
D14*
%TO.P,J4,3,Pin_3*%
%TO.N,GND*%
X57625000Y-64770000D03*
D15*
%TO.P,J4,2,Pin_2*%
%TO.N,/I2C1_SLC*%
X57625000Y-67310000D03*
D10*
%TO.P,J4,1,Pin_1*%
%TO.N,/I2C1_SDA*%
X57625000Y-69850000D03*
%TD*%
%TO.P,,1,Pin_1*%
%TO.N,/ACC_INT1*%
X53125000Y-73800000D03*
%TD*%
%TO.P,J4,1,Pin_1*%
%TO.N,/I2C1_SDA*%
X61850000Y-71950000D03*
D15*
%TO.P,J4,2,Pin_2*%
%TO.N,/I2C1_SLC*%
X61850000Y-69410000D03*
D14*
%TO.P,J4,3,Pin_3*%
%TO.N,GND*%
X61850000Y-66870000D03*
%TD*%
D10*
%TO.P,J4,1,Pin_1*%
%TO.N,/I2C1_SDA*%
X61725000Y-60800000D03*
D15*
%TO.P,J4,2,Pin_2*%
%TO.N,/I2C1_SLC*%
X61725000Y-58260000D03*
D14*
%TO.P,J4,3,Pin_3*%
%TO.N,GND*%
X61725000Y-55720000D03*
%TD*%
D10*
%TO.P,,1,Pin_1*%
%TO.N,/ACC_INT1*%
X64375000Y-66875000D03*
%TD*%
D14*
%TO.P,J2,1,Pin_1*%
%TO.N,unconnected-(J2-Pad1)*%
X21925000Y-69775000D03*
D15*
%TO.P,J2,2,Pin_2*%
%TO.N,/SWDIO*%
X21925000Y-67235000D03*
%TO.P,J2,3,Pin_3*%
%TO.N,unconnected-(J2-Pad3)*%
X24465000Y-69775000D03*
%TO.P,J2,4,Pin_4*%
%TO.N,/SWCLK*%
X24465000Y-67235000D03*
%TO.P,J2,5,Pin_5*%
%TO.N,GND*%
X27005000Y-69775000D03*
%TO.P,J2,6,Pin_6*%
X27005000Y-67235000D03*
%TO.P,J2,7,Pin_7*%
%TO.N,unconnected-(J2-Pad7)*%
X29545000Y-69775000D03*
%TO.P,J2,8,Pin_8*%
%TO.N,unconnected-(J2-Pad8)*%
X29545000Y-67235000D03*
%TO.P,J2,9,Pin_9*%
%TO.N,unconnected-(J2-Pad9)*%
X32085000Y-69775000D03*
%TO.P,J2,10,Pin_10*%
%TO.N,unconnected-(J2-Pad10)*%
X32085000Y-67235000D03*
%TD*%
D10*
%TO.P,,1,Pin_1*%
%TO.N,/ACC_INT0*%
X50600000Y-73800000D03*
%TD*%
%TO.P,,1,Pin_1*%
%TO.N,+3V3*%
X61725000Y-63325000D03*
%TD*%
%TO.P,,1,Pin_1*%
%TO.N,/ACC_INT0*%
X64250000Y-55725000D03*
%TD*%
D16*
%TO.P,REF\u002A\u002A,1*%
%TO.N,/ACC_INT0*%
X48750000Y-71850000D03*
D17*
%TO.P,REF\u002A\u002A,2*%
X47300000Y-71850000D03*
%TD*%
D18*
%TO.P,C6,1*%
%TO.N,+3V3*%
X40987500Y-59775000D03*
%TO.P,C6,2*%
%TO.N,GND*%
X38912500Y-59775000D03*
%TD*%
D19*
%TO.P,C5,1*%
%TO.N,+5V*%
X33562500Y-61800000D03*
%TO.P,C5,2*%
%TO.N,GND*%
X35637500Y-61800000D03*
%TD*%
D16*
%TO.P,REF\u002A\u002A,1*%
%TO.N,/ACC_INT1*%
X48750000Y-69325000D03*
D17*
%TO.P,REF\u002A\u002A,2*%
X47300000Y-69325000D03*
%TD*%
D20*
%TO.N,/AUDIO+*%
X45875000Y-62675000D03*
X46025000Y-69350000D03*
%TO.N,GND*%
X54500000Y-68500000D03*
X65000000Y-62000000D03*
X35800000Y-64000000D03*
X38800000Y-62400000D03*
X65000000Y-73200000D03*
%TO.N,+5V*%
X49600000Y-57200000D03*
X49600000Y-62800000D03*
X32200000Y-59800000D03*
%TO.N,+3V3*%
X36800000Y-59800000D03*
X42400000Y-70600000D03*
X64125000Y-69100000D03*
X64375000Y-74475000D03*
X37421302Y-67200000D03*
X64462500Y-57537500D03*
X66850000Y-62525000D03*
%TO.N,Net-(J5-PadR)*%
X56600000Y-59200000D03*
X43600000Y-54800000D03*
%TO.N,Net-(J5-PadT)*%
X51400000Y-69600000D03*
X43600000Y-58400000D03*
%TO.N,Net-(R1-Pad2)*%
X49600000Y-64800000D03*
X41800000Y-56000000D03*
%TO.N,/ACC_INT1*%
X44400000Y-64050000D03*
%TO.N,/I2C1_SDA*%
X42400000Y-65800000D03*
X46200000Y-67000000D03*
%TO.N,/ACC_INT0*%
X44500000Y-72450000D03*
%TD*%
D21*
%TO.N,/AUDIO+*%
X41200000Y-64725000D02*
X41200000Y-67450000D01*
X43250000Y-62675000D02*
X41200000Y-64725000D01*
X45875000Y-62675000D02*
X43250000Y-62675000D01*
X41200000Y-67450000D02*
X43100000Y-69350000D01*
X43100000Y-69350000D02*
X46025000Y-69350000D01*
D22*
%TO.N,GND*%
X65000000Y-69075000D02*
X65000000Y-73200000D01*
X61725000Y-55725000D02*
X63725000Y-57725000D01*
X38912500Y-62287500D02*
X38800000Y-62400000D01*
X64800000Y-62000000D02*
X65000000Y-62000000D01*
X35637500Y-63837500D02*
X35800000Y-64000000D01*
X54500000Y-67575000D02*
X54500000Y-68500000D01*
X63725000Y-60925000D02*
X64800000Y-62000000D01*
X63725000Y-57725000D02*
X63725000Y-60925000D01*
X38912500Y-59775000D02*
X38912500Y-62287500D01*
X61850000Y-66870000D02*
X62795000Y-66870000D01*
X38800000Y-62400000D02*
X37200000Y-64000000D01*
X62795000Y-66870000D02*
X65000000Y-69075000D01*
X35637500Y-61800000D02*
X35637500Y-63837500D01*
X37200000Y-64000000D02*
X35800000Y-64000000D01*
X57325000Y-64750000D02*
X54500000Y-67575000D01*
%TO.N,+5V*%
X27375000Y-63275000D02*
X27375000Y-61925000D01*
X23125000Y-61925000D02*
X23125000Y-60875000D01*
X44400000Y-57200000D02*
X49600000Y-57200000D01*
X26600000Y-60000000D02*
X27375000Y-60775000D01*
X32200000Y-56400000D02*
X33600000Y-55000000D01*
X23125000Y-63275000D02*
X23125000Y-61925000D01*
X32200000Y-60437500D02*
X33562500Y-61800000D01*
X33600000Y-55000000D02*
X42200000Y-55000000D01*
X27375000Y-60775000D02*
X27375000Y-61925000D01*
X32200000Y-59800000D02*
X32200000Y-56400000D01*
X42200000Y-55000000D02*
X44400000Y-57200000D01*
X24000000Y-60000000D02*
X26600000Y-60000000D01*
X23125000Y-60875000D02*
X24000000Y-60000000D01*
X49600000Y-57200000D02*
X49600000Y-62800000D01*
X32200000Y-59800000D02*
X32200000Y-60437500D01*
%TO.N,+3V3*%
X66850000Y-62525000D02*
X64462500Y-60137500D01*
X64125000Y-74225000D02*
X64375000Y-74475000D01*
X64125000Y-69100000D02*
X64125000Y-74225000D01*
X64462500Y-60137500D02*
X64462500Y-57537500D01*
%TO.N,Net-(J5-PadR)*%
X43600000Y-54800000D02*
X52200000Y-54800000D01*
X52200000Y-54800000D02*
X56600000Y-59200000D01*
%TO.N,Net-(J5-PadT)*%
X43600000Y-58400000D02*
X43900000Y-58400000D01*
X48000000Y-62500000D02*
X48000000Y-66200000D01*
X48000000Y-66200000D02*
X51400000Y-69600000D01*
X43900000Y-58400000D02*
X48000000Y-62500000D01*
%TO.N,Net-(R1-Pad2)*%
X48600000Y-63800000D02*
X49600000Y-64800000D01*
X48600000Y-62200000D02*
X48600000Y-63800000D01*
X42400000Y-56000000D02*
X48600000Y-62200000D01*
X41800000Y-56000000D02*
X42400000Y-56000000D01*
%TO.N,/ACC_INT1*%
X44950000Y-64050000D02*
X44400000Y-64050000D01*
X48750000Y-69325000D02*
X49300000Y-69325000D01*
X47300000Y-66400000D02*
X44950000Y-64050000D01*
X49300000Y-69325000D02*
X53300000Y-73325000D01*
X47300000Y-69325000D02*
X47300000Y-66400000D01*
%TO.N,/I2C1_SDA*%
X46200000Y-67000000D02*
X45000000Y-65800000D01*
X45000000Y-65800000D02*
X42400000Y-65800000D01*
%TO.N,/ACC_INT0*%
X50600000Y-73800000D02*
X48750000Y-71950000D01*
X45100000Y-71850000D02*
X44500000Y-72450000D01*
X50525000Y-73725000D02*
X50600000Y-73800000D01*
X48750000Y-71950000D02*
X48750000Y-71850000D01*
X47300000Y-71850000D02*
X45100000Y-71850000D01*
%TD*%
%TA.AperFunction,Conductor*%
%TO.N,+3V3*%
G36*
X33217700Y-54278002D02*
G01*
X33264193Y-54331658D01*
X33274297Y-54401932D01*
X33244803Y-54466512D01*
X33221354Y-54486082D01*
X33221727Y-54486563D01*
X33215466Y-54491420D01*
X33208638Y-54495458D01*
X33194317Y-54509779D01*
X33179284Y-54522619D01*
X33162893Y-54534528D01*
X33157842Y-54540634D01*
X33134702Y-54568605D01*
X33126712Y-54577384D01*
X31807747Y-55896348D01*
X31799461Y-55903888D01*
X31792982Y-55908000D01*
X31787557Y-55913777D01*
X31746357Y-55957651D01*
X31743602Y-55960493D01*
X31723865Y-55980230D01*
X31721385Y-55983427D01*
X31713682Y-55992447D01*
X31683414Y-56024679D01*
X31679595Y-56031625D01*
X31679593Y-56031628D01*
X31673652Y-56042434D01*
X31662801Y-56058953D01*
X31650386Y-56074959D01*
X31647241Y-56082228D01*
X31647238Y-56082232D01*
X31632826Y-56115537D01*
X31627609Y-56126187D01*
X31606305Y-56164940D01*
X31604334Y-56172615D01*
X31604334Y-56172616D01*
X31601267Y-56184562D01*
X31594863Y-56203266D01*
X31586819Y-56221855D01*
X31585580Y-56229678D01*
X31585577Y-56229688D01*
X31579901Y-56265524D01*
X31577495Y-56277144D01*
X31573457Y-56292872D01*
X31566500Y-56319970D01*
X31566500Y-56340224D01*
X31564949Y-56359934D01*
X31561780Y-56379943D01*
X31562526Y-56387835D01*
X31565941Y-56423961D01*
X31566500Y-56435819D01*
X31566500Y-59097476D01*
X31546498Y-59165597D01*
X31534142Y-59181779D01*
X31460960Y-59263056D01*
X31448485Y-59284664D01*
X31395535Y-59376376D01*
X31365473Y-59428444D01*
X31306458Y-59610072D01*
X31305768Y-59616633D01*
X31305768Y-59616635D01*
X31288886Y-59777260D01*
X31286496Y-59800000D01*
X31287186Y-59806565D01*
X31292726Y-59859271D01*
X31306458Y-59989928D01*
X31365473Y-60171556D01*
X31460960Y-60336944D01*
X31535866Y-60420136D01*
X31566582Y-60484141D01*
X31568167Y-60500482D01*
X31569327Y-60537389D01*
X31572979Y-60549959D01*
X31574978Y-60556839D01*
X31578987Y-60576200D01*
X31579424Y-60579655D01*
X31581526Y-60596297D01*
X31584445Y-60603668D01*
X31584445Y-60603670D01*
X31597804Y-60637412D01*
X31601649Y-60648642D01*
X31610487Y-60679063D01*
X31613982Y-60691093D01*
X31618015Y-60697912D01*
X31618017Y-60697917D01*
X31624293Y-60708528D01*
X31632988Y-60726276D01*
X31640448Y-60745117D01*
X31645110Y-60751533D01*
X31645110Y-60751534D01*
X31666436Y-60780887D01*
X31672952Y-60790807D01*
X31695458Y-60828862D01*
X31709779Y-60843183D01*
X31722619Y-60858216D01*
X31734528Y-60874607D01*
X31740632Y-60879657D01*
X31740637Y-60879662D01*
X31768598Y-60902793D01*
X31777379Y-60910783D01*
X32429596Y-61563001D01*
X32463621Y-61625313D01*
X32466500Y-61652096D01*
X32466500Y-62325400D01*
X32466837Y-62328646D01*
X32466837Y-62328650D01*
X32476598Y-62422721D01*
X32477474Y-62431166D01*
X32479655Y-62437702D01*
X32479655Y-62437704D01*
X32523728Y-62569806D01*
X32533450Y-62598946D01*
X32626522Y-62749348D01*
X32751697Y-62874305D01*
X32757927Y-62878145D01*
X32757928Y-62878146D01*
X32895090Y-62962694D01*
X32902262Y-62967115D01*
X32982005Y-62993564D01*
X33063611Y-63020632D01*
X33063613Y-63020632D01*
X33070139Y-63022797D01*
X33076975Y-63023497D01*
X33076978Y-63023498D01*
X33120031Y-63027909D01*
X33174600Y-63033500D01*
X33950400Y-63033500D01*
X33953646Y-63033163D01*
X33953650Y-63033163D01*
X34049308Y-63023238D01*
X34049312Y-63023237D01*
X34056166Y-63022526D01*
X34062702Y-63020345D01*
X34062704Y-63020345D01*
X34195999Y-62975874D01*
X34223946Y-62966550D01*
X34374348Y-62873478D01*
X34499305Y-62748303D01*
X34501906Y-62744084D01*
X34559030Y-62703583D01*
X34629953Y-62700351D01*
X34691365Y-62735976D01*
X34697922Y-62743530D01*
X34701522Y-62749348D01*
X34826697Y-62874305D01*
X34944117Y-62946684D01*
X34991609Y-62999455D01*
X35004000Y-63053943D01*
X35004000Y-63527952D01*
X34987119Y-63590952D01*
X34965473Y-63628444D01*
X34906458Y-63810072D01*
X34905768Y-63816633D01*
X34905768Y-63816635D01*
X34888790Y-63978175D01*
X34886496Y-64000000D01*
X34887186Y-64006565D01*
X34899228Y-64121134D01*
X34906458Y-64189928D01*
X34965473Y-64371556D01*
X35060960Y-64536944D01*
X35065378Y-64541851D01*
X35065379Y-64541852D01*
X35147452Y-64633003D01*
X35188747Y-64678866D01*
X35343248Y-64791118D01*
X35349276Y-64793802D01*
X35349278Y-64793803D01*
X35446833Y-64837237D01*
X35517712Y-64868794D01*
X35611113Y-64888647D01*
X35698056Y-64907128D01*
X35698061Y-64907128D01*
X35704513Y-64908500D01*
X35895487Y-64908500D01*
X35901939Y-64907128D01*
X35901944Y-64907128D01*
X35988887Y-64888647D01*
X36082288Y-64868794D01*
X36153167Y-64837237D01*
X36250722Y-64793803D01*
X36250724Y-64793802D01*
X36256752Y-64791118D01*
X36292866Y-64764880D01*
X36402652Y-64685115D01*
X36411253Y-64678866D01*
X36415668Y-64673963D01*
X36420580Y-64669540D01*
X36421705Y-64670789D01*
X36475014Y-64637949D01*
X36508200Y-64633500D01*
X37121233Y-64633500D01*
X37132416Y-64634027D01*
X37139909Y-64635702D01*
X37147835Y-64635453D01*
X37147836Y-64635453D01*
X37207986Y-64633562D01*
X37211945Y-64633500D01*
X37239856Y-64633500D01*
X37243791Y-64633003D01*
X37243856Y-64632995D01*
X37255693Y-64632062D01*
X37287951Y-64631048D01*
X37291970Y-64630922D01*
X37299889Y-64630673D01*
X37319343Y-64625021D01*
X37338700Y-64621013D01*
X37350930Y-64619468D01*
X37350931Y-64619468D01*
X37358797Y-64618474D01*
X37366168Y-64615555D01*
X37366170Y-64615555D01*
X37399912Y-64602196D01*
X37411142Y-64598351D01*
X37445983Y-64588229D01*
X37445984Y-64588229D01*
X37453593Y-64586018D01*
X37460412Y-64581985D01*
X37460417Y-64581983D01*
X37471028Y-64575707D01*
X37488776Y-64567012D01*
X37507617Y-64559552D01*
X37543387Y-64533564D01*
X37553307Y-64527048D01*
X37584535Y-64508580D01*
X37584538Y-64508578D01*
X37591362Y-64504542D01*
X37605683Y-64490221D01*
X37620717Y-64477380D01*
X37630694Y-64470131D01*
X37637107Y-64465472D01*
X37665298Y-64431395D01*
X37673288Y-64422616D01*
X38750499Y-63345405D01*
X38812811Y-63311379D01*
X38839594Y-63308500D01*
X38895487Y-63308500D01*
X38901939Y-63307128D01*
X38901944Y-63307128D01*
X38988887Y-63288647D01*
X39082288Y-63268794D01*
X39088319Y-63266109D01*
X39250722Y-63193803D01*
X39250724Y-63193802D01*
X39256752Y-63191118D01*
X39411253Y-63078866D01*
X39463687Y-63020632D01*
X39534621Y-62941852D01*
X39534622Y-62941851D01*
X39539040Y-62936944D01*
X39634527Y-62771556D01*
X39693542Y-62589928D01*
X39713504Y-62400000D01*
X39706005Y-62328650D01*
X39694232Y-62216635D01*
X39694232Y-62216633D01*
X39693542Y-62210072D01*
X39634527Y-62028444D01*
X39562881Y-61904349D01*
X39546000Y-61841350D01*
X39546000Y-61029046D01*
X39566002Y-60960925D01*
X39605697Y-60921902D01*
X39718120Y-60852332D01*
X39724348Y-60848478D01*
X39849305Y-60723303D01*
X39852102Y-60718765D01*
X39909353Y-60678176D01*
X39980276Y-60674946D01*
X40041687Y-60710572D01*
X40049062Y-60719068D01*
X40057098Y-60729207D01*
X40171829Y-60843739D01*
X40183240Y-60852751D01*
X40321243Y-60937816D01*
X40334424Y-60943963D01*
X40488710Y-60995138D01*
X40502086Y-60998005D01*
X40596438Y-61007672D01*
X40602854Y-61008000D01*
X40715385Y-61008000D01*
X40730624Y-61003525D01*
X40731829Y-61002135D01*
X40733500Y-60994452D01*
X40733500Y-60989884D01*
X41241500Y-60989884D01*
X41245975Y-61005123D01*
X41247365Y-61006328D01*
X41255048Y-61007999D01*
X41372095Y-61007999D01*
X41378614Y-61007662D01*
X41474206Y-60997743D01*
X41487600Y-60994851D01*
X41641784Y-60943412D01*
X41654962Y-60937239D01*
X41792807Y-60851937D01*
X41804208Y-60842901D01*
X41918739Y-60728171D01*
X41927751Y-60716760D01*
X42012816Y-60578757D01*
X42018963Y-60565576D01*
X42070138Y-60411290D01*
X42073005Y-60397914D01*
X42082672Y-60303562D01*
X42083000Y-60297146D01*
X42083000Y-60047115D01*
X42078525Y-60031876D01*
X42077135Y-60030671D01*
X42069452Y-60029000D01*
X41259615Y-60029000D01*
X41244376Y-60033475D01*
X41243171Y-60034865D01*
X41241500Y-60042548D01*
X41241500Y-60989884D01*
X40733500Y-60989884D01*
X40733500Y-59502885D01*
X41241500Y-59502885D01*
X41245975Y-59518124D01*
X41247365Y-59519329D01*
X41255048Y-59521000D01*
X42064884Y-59521000D01*
X42080123Y-59516525D01*
X42081328Y-59515135D01*
X42082999Y-59507452D01*
X42082999Y-59252905D01*
X42082662Y-59246386D01*
X42072743Y-59150794D01*
X42069851Y-59137400D01*
X42018412Y-58983216D01*
X42012239Y-58970038D01*
X41926937Y-58832193D01*
X41917901Y-58820792D01*
X41803171Y-58706261D01*
X41791760Y-58697249D01*
X41653757Y-58612184D01*
X41640576Y-58606037D01*
X41486290Y-58554862D01*
X41472914Y-58551995D01*
X41378562Y-58542328D01*
X41372145Y-58542000D01*
X41259615Y-58542000D01*
X41244376Y-58546475D01*
X41243171Y-58547865D01*
X41241500Y-58555548D01*
X41241500Y-59502885D01*
X40733500Y-59502885D01*
X40733500Y-58560116D01*
X40729025Y-58544877D01*
X40727635Y-58543672D01*
X40719952Y-58542001D01*
X40602905Y-58542001D01*
X40596386Y-58542338D01*
X40500794Y-58552257D01*
X40487400Y-58555149D01*
X40333216Y-58606588D01*
X40320038Y-58612761D01*
X40182193Y-58698063D01*
X40170792Y-58707099D01*
X40056262Y-58821828D01*
X40049206Y-58830762D01*
X39991288Y-58871823D01*
X39920365Y-58875053D01*
X39858954Y-58839426D01*
X39852154Y-58831593D01*
X39848478Y-58825652D01*
X39723303Y-58700695D01*
X39662242Y-58663056D01*
X39578968Y-58611725D01*
X39578966Y-58611724D01*
X39572738Y-58607885D01*
X39492995Y-58581436D01*
X39411389Y-58554368D01*
X39411387Y-58554368D01*
X39404861Y-58552203D01*
X39398025Y-58551503D01*
X39398022Y-58551502D01*
X39354969Y-58547091D01*
X39300400Y-58541500D01*
X38524600Y-58541500D01*
X38521354Y-58541837D01*
X38521350Y-58541837D01*
X38425692Y-58551762D01*
X38425688Y-58551763D01*
X38418834Y-58552474D01*
X38412298Y-58554655D01*
X38412296Y-58554655D01*
X38306571Y-58589928D01*
X38251054Y-58608450D01*
X38100652Y-58701522D01*
X37975695Y-58826697D01*
X37882885Y-58977262D01*
X37869826Y-59016635D01*
X37850814Y-59073955D01*
X37827203Y-59145139D01*
X37816500Y-59249600D01*
X37816500Y-60300400D01*
X37816837Y-60303646D01*
X37816837Y-60303650D01*
X37826618Y-60397914D01*
X37827474Y-60406166D01*
X37829655Y-60412702D01*
X37829655Y-60412704D01*
X37858672Y-60499679D01*
X37883450Y-60573946D01*
X37976522Y-60724348D01*
X37981704Y-60729521D01*
X38017274Y-60765029D01*
X38101697Y-60849305D01*
X38107927Y-60853145D01*
X38107928Y-60853146D01*
X38132340Y-60868194D01*
X38219117Y-60921684D01*
X38266609Y-60974455D01*
X38279000Y-61028943D01*
X38279000Y-61591361D01*
X38258998Y-61659482D01*
X38227061Y-61693297D01*
X38188747Y-61721134D01*
X38184326Y-61726044D01*
X38184325Y-61726045D01*
X38102171Y-61817287D01*
X38060960Y-61863056D01*
X37965473Y-62028444D01*
X37906458Y-62210072D01*
X37905768Y-62216633D01*
X37905768Y-62216635D01*
X37900889Y-62263056D01*
X37892681Y-62341158D01*
X37889093Y-62375292D01*
X37862080Y-62440949D01*
X37852878Y-62451218D01*
X36974499Y-63329596D01*
X36912187Y-63363621D01*
X36885404Y-63366500D01*
X36508200Y-63366500D01*
X36440079Y-63346498D01*
X36420853Y-63330157D01*
X36420580Y-63330460D01*
X36415668Y-63326037D01*
X36411253Y-63321134D01*
X36322939Y-63256970D01*
X36279585Y-63200748D01*
X36271000Y-63155034D01*
X36271000Y-63054046D01*
X36291002Y-62985925D01*
X36330697Y-62946902D01*
X36443120Y-62877332D01*
X36449348Y-62873478D01*
X36574305Y-62748303D01*
X36667115Y-62597738D01*
X36693564Y-62517995D01*
X36720632Y-62436389D01*
X36720632Y-62436387D01*
X36722797Y-62429861D01*
X36733500Y-62325400D01*
X36733500Y-61274600D01*
X36727675Y-61218458D01*
X36723238Y-61175692D01*
X36723237Y-61175688D01*
X36722526Y-61168834D01*
X36719944Y-61161093D01*
X36668867Y-61007999D01*
X36666550Y-61001054D01*
X36573478Y-60850652D01*
X36565714Y-60842901D01*
X36453483Y-60730866D01*
X36448303Y-60725695D01*
X36442072Y-60721854D01*
X36303968Y-60636725D01*
X36303966Y-60636724D01*
X36297738Y-60632885D01*
X36187428Y-60596297D01*
X36136389Y-60579368D01*
X36136387Y-60579368D01*
X36129861Y-60577203D01*
X36123025Y-60576503D01*
X36123022Y-60576502D01*
X36079969Y-60572091D01*
X36025400Y-60566500D01*
X35249600Y-60566500D01*
X35246354Y-60566837D01*
X35246350Y-60566837D01*
X35150692Y-60576762D01*
X35150688Y-60576763D01*
X35143834Y-60577474D01*
X35137298Y-60579655D01*
X35137296Y-60579655D01*
X35027749Y-60616203D01*
X34976054Y-60633450D01*
X34825652Y-60726522D01*
X34700695Y-60851697D01*
X34698094Y-60855916D01*
X34640970Y-60896417D01*
X34570047Y-60899649D01*
X34508635Y-60864024D01*
X34502078Y-60856470D01*
X34498478Y-60850652D01*
X34490714Y-60842901D01*
X34378483Y-60730866D01*
X34373303Y-60725695D01*
X34367072Y-60721854D01*
X34228968Y-60636725D01*
X34228966Y-60636724D01*
X34222738Y-60632885D01*
X34112428Y-60596297D01*
X34061389Y-60579368D01*
X34061387Y-60579368D01*
X34054861Y-60577203D01*
X34048025Y-60576503D01*
X34048022Y-60576502D01*
X34004969Y-60572091D01*
X33950400Y-60566500D01*
X33277096Y-60566500D01*
X33208975Y-60546498D01*
X33188001Y-60529596D01*
X33028016Y-60369611D01*
X32993991Y-60307300D01*
X32999055Y-60236484D01*
X33007992Y-60217516D01*
X33031223Y-60177279D01*
X33031224Y-60177278D01*
X33034527Y-60171556D01*
X33093542Y-59989928D01*
X33107275Y-59859271D01*
X33112814Y-59806565D01*
X33113504Y-59800000D01*
X33111114Y-59777260D01*
X33094232Y-59616635D01*
X33094232Y-59616633D01*
X33093542Y-59610072D01*
X33034527Y-59428444D01*
X33004466Y-59376376D01*
X32951515Y-59284664D01*
X32939040Y-59263056D01*
X32865863Y-59181785D01*
X32835147Y-59117779D01*
X32833500Y-59097476D01*
X32833500Y-56714594D01*
X32853502Y-56646473D01*
X32870401Y-56625503D01*
X33825502Y-55670403D01*
X33887812Y-55636379D01*
X33914595Y-55633500D01*
X40790406Y-55633500D01*
X40858527Y-55653502D01*
X40905020Y-55707158D01*
X40915124Y-55777432D01*
X40910238Y-55798438D01*
X40908498Y-55803792D01*
X40908497Y-55803797D01*
X40906458Y-55810072D01*
X40886496Y-56000000D01*
X40887186Y-56006565D01*
X40903832Y-56164940D01*
X40906458Y-56189928D01*
X40965473Y-56371556D01*
X41060960Y-56536944D01*
X41065378Y-56541851D01*
X41065379Y-56541852D01*
X41174512Y-56663056D01*
X41188747Y-56678866D01*
X41343248Y-56791118D01*
X41349276Y-56793802D01*
X41349278Y-56793803D01*
X41441200Y-56834729D01*
X41517712Y-56868794D01*
X41611112Y-56888647D01*
X41698056Y-56907128D01*
X41698061Y-56907128D01*
X41704513Y-56908500D01*
X41895487Y-56908500D01*
X41901939Y-56907128D01*
X41901944Y-56907128D01*
X41988888Y-56888647D01*
X42082288Y-56868794D01*
X42204255Y-56814491D01*
X42274622Y-56805057D01*
X42338919Y-56835163D01*
X42344599Y-56840503D01*
X43021399Y-57517303D01*
X43055425Y-57579615D01*
X43050360Y-57650430D01*
X43006365Y-57708334D01*
X42988747Y-57721134D01*
X42860960Y-57863056D01*
X42765473Y-58028444D01*
X42706458Y-58210072D01*
X42686496Y-58400000D01*
X42687186Y-58406565D01*
X42703325Y-58560116D01*
X42706458Y-58589928D01*
X42765473Y-58771556D01*
X42860960Y-58936944D01*
X42865378Y-58941851D01*
X42865379Y-58941852D01*
X42921152Y-59003794D01*
X42988747Y-59078866D01*
X43042306Y-59117779D01*
X43131680Y-59182713D01*
X43143248Y-59191118D01*
X43149276Y-59193802D01*
X43149278Y-59193803D01*
X43311681Y-59266109D01*
X43317712Y-59268794D01*
X43411113Y-59288647D01*
X43498056Y-59307128D01*
X43498061Y-59307128D01*
X43504513Y-59308500D01*
X43695487Y-59308500D01*
X43807623Y-59284664D01*
X43878411Y-59290066D01*
X43922912Y-59318816D01*
X46177817Y-61573721D01*
X46211843Y-61636033D01*
X46206778Y-61706848D01*
X46164231Y-61763684D01*
X46097711Y-61788495D01*
X46062525Y-61786063D01*
X45976944Y-61767872D01*
X45976939Y-61767872D01*
X45970487Y-61766500D01*
X45779513Y-61766500D01*
X45773061Y-61767872D01*
X45773056Y-61767872D01*
X45687477Y-61786063D01*
X45592712Y-61806206D01*
X45586682Y-61808891D01*
X45586681Y-61808891D01*
X45424278Y-61881197D01*
X45424276Y-61881198D01*
X45418248Y-61883882D01*
X45263747Y-61996134D01*
X45259334Y-62001036D01*
X45259332Y-62001037D01*
X45237926Y-62024811D01*
X45177480Y-62062050D01*
X45144290Y-62066500D01*
X43298136Y-62066500D01*
X43281693Y-62065422D01*
X43250000Y-62061250D01*
X43241811Y-62062328D01*
X43210126Y-62066499D01*
X43210117Y-62066500D01*
X43210115Y-62066500D01*
X43210109Y-62066501D01*
X43210107Y-62066501D01*
X43110543Y-62079609D01*
X43099336Y-62081084D01*
X43099334Y-62081085D01*
X43091149Y-62082162D01*
X42943124Y-62143476D01*
X42897305Y-62178634D01*
X42847937Y-62216515D01*
X42847921Y-62216529D01*
X42822566Y-62235984D01*
X42822563Y-62235987D01*
X42816013Y-62241013D01*
X42810983Y-62247568D01*
X42796548Y-62266379D01*
X42785681Y-62278770D01*
X40803766Y-64260685D01*
X40791375Y-64271552D01*
X40766013Y-64291013D01*
X40741526Y-64322925D01*
X40741523Y-64322928D01*
X40668476Y-64418124D01*
X40662979Y-64431395D01*
X40611826Y-64554890D01*
X40607162Y-64566149D01*
X40606795Y-64568939D01*
X40591500Y-64685115D01*
X40591500Y-64685120D01*
X40586250Y-64725000D01*
X40587328Y-64733188D01*
X40590422Y-64756690D01*
X40591500Y-64773136D01*
X40591500Y-67401864D01*
X40590422Y-67418307D01*
X40586250Y-67450000D01*
X40591500Y-67489880D01*
X40591500Y-67489885D01*
X40600066Y-67554943D01*
X40601908Y-67568937D01*
X40601908Y-67568939D01*
X40605743Y-67598069D01*
X40607162Y-67608851D01*
X40668476Y-67756876D01*
X40673503Y-67763427D01*
X40673504Y-67763429D01*
X40741520Y-67852069D01*
X40741526Y-67852075D01*
X40766013Y-67883987D01*
X40772568Y-67889017D01*
X40791379Y-67903452D01*
X40803770Y-67914319D01*
X42635685Y-69746234D01*
X42646552Y-69758625D01*
X42666013Y-69783987D01*
X42672563Y-69789013D01*
X42697921Y-69808471D01*
X42697937Y-69808485D01*
X42736715Y-69838240D01*
X42793124Y-69881524D01*
X42941149Y-69942838D01*
X42949336Y-69943916D01*
X42949337Y-69943916D01*
X42960542Y-69945391D01*
X42991738Y-69949498D01*
X43060115Y-69958500D01*
X43060118Y-69958500D01*
X43060126Y-69958501D01*
X43091811Y-69962672D01*
X43100000Y-69963750D01*
X43131693Y-69959578D01*
X43148136Y-69958500D01*
X45294290Y-69958500D01*
X45362411Y-69978502D01*
X45387926Y-70000189D01*
X45413747Y-70028866D01*
X45568248Y-70141118D01*
X45574276Y-70143802D01*
X45574278Y-70143803D01*
X45736681Y-70216109D01*
X45742712Y-70218794D01*
X45836112Y-70238647D01*
X45923056Y-70257128D01*
X45923061Y-70257128D01*
X45929513Y-70258500D01*
X46120487Y-70258500D01*
X46126939Y-70257128D01*
X46126944Y-70257128D01*
X46205142Y-70240506D01*
X46275933Y-70245908D01*
X46332565Y-70288725D01*
X46337332Y-70295625D01*
X46411750Y-70411421D01*
X46418561Y-70417323D01*
X46418563Y-70417325D01*
X46505618Y-70492759D01*
X46544002Y-70552485D01*
X46544002Y-70623481D01*
X46505618Y-70683207D01*
X46491229Y-70693980D01*
X46485569Y-70697618D01*
X46463579Y-70711750D01*
X46457678Y-70718560D01*
X46373726Y-70815445D01*
X46373724Y-70815448D01*
X46367824Y-70822257D01*
X46307081Y-70955266D01*
X46305798Y-70964189D01*
X46288419Y-71085062D01*
X46286271Y-71100000D01*
X46286271Y-71100451D01*
X46261820Y-71166008D01*
X46204984Y-71208555D01*
X46160951Y-71216500D01*
X45178767Y-71216500D01*
X45167584Y-71215973D01*
X45160091Y-71214298D01*
X45152165Y-71214547D01*
X45152164Y-71214547D01*
X45092014Y-71216438D01*
X45088055Y-71216500D01*
X45060144Y-71216500D01*
X45056210Y-71216997D01*
X45056209Y-71216997D01*
X45056144Y-71217005D01*
X45044307Y-71217938D01*
X45012490Y-71218938D01*
X45008029Y-71219078D01*
X45000110Y-71219327D01*
X44982454Y-71224456D01*
X44980658Y-71224978D01*
X44961306Y-71228986D01*
X44954235Y-71229880D01*
X44941203Y-71231526D01*
X44933834Y-71234443D01*
X44933832Y-71234444D01*
X44900097Y-71247800D01*
X44888869Y-71251645D01*
X44846407Y-71263982D01*
X44839584Y-71268017D01*
X44839582Y-71268018D01*
X44828972Y-71274293D01*
X44811224Y-71282988D01*
X44792383Y-71290448D01*
X44785967Y-71295110D01*
X44785966Y-71295110D01*
X44756613Y-71316436D01*
X44746693Y-71322952D01*
X44715465Y-71341420D01*
X44715462Y-71341422D01*
X44708638Y-71345458D01*
X44694317Y-71359779D01*
X44679284Y-71372619D01*
X44662893Y-71384528D01*
X44657840Y-71390636D01*
X44634708Y-71418598D01*
X44626718Y-71427378D01*
X44549501Y-71504595D01*
X44487189Y-71538621D01*
X44460406Y-71541500D01*
X44404513Y-71541500D01*
X44398061Y-71542872D01*
X44398056Y-71542872D01*
X44311112Y-71561353D01*
X44217712Y-71581206D01*
X44211682Y-71583891D01*
X44211681Y-71583891D01*
X44049278Y-71656197D01*
X44049276Y-71656198D01*
X44043248Y-71658882D01*
X43888747Y-71771134D01*
X43760960Y-71913056D01*
X43665473Y-72078444D01*
X43606458Y-72260072D01*
X43605768Y-72266633D01*
X43605768Y-72266635D01*
X43603743Y-72285905D01*
X43586496Y-72450000D01*
X43587186Y-72456565D01*
X43602984Y-72606870D01*
X43606458Y-72639928D01*
X43665473Y-72821556D01*
X43760960Y-72986944D01*
X43765378Y-72991851D01*
X43765379Y-72991852D01*
X43884325Y-73123955D01*
X43888747Y-73128866D01*
X44043248Y-73241118D01*
X44049276Y-73243802D01*
X44049278Y-73243803D01*
X44211681Y-73316109D01*
X44217712Y-73318794D01*
X44311112Y-73338647D01*
X44398056Y-73357128D01*
X44398061Y-73357128D01*
X44404513Y-73358500D01*
X44595487Y-73358500D01*
X44601939Y-73357128D01*
X44601944Y-73357128D01*
X44688888Y-73338647D01*
X44782288Y-73318794D01*
X44788319Y-73316109D01*
X44950722Y-73243803D01*
X44950724Y-73243802D01*
X44956752Y-73241118D01*
X45111253Y-73128866D01*
X45115675Y-73123955D01*
X45234621Y-72991852D01*
X45234622Y-72991851D01*
X45239040Y-72986944D01*
X45334527Y-72821556D01*
X45393542Y-72639928D01*
X45398124Y-72596329D01*
X45425137Y-72530673D01*
X45483358Y-72490043D01*
X45523434Y-72483500D01*
X46160629Y-72483500D01*
X46228750Y-72503502D01*
X46275243Y-72557158D01*
X46286307Y-72600510D01*
X46291500Y-72673111D01*
X46302686Y-72711206D01*
X46330128Y-72804664D01*
X46332696Y-72813411D01*
X46352488Y-72844208D01*
X46406878Y-72928841D01*
X46406880Y-72928844D01*
X46411750Y-72936421D01*
X46418560Y-72942322D01*
X46515445Y-73026274D01*
X46515448Y-73026276D01*
X46522257Y-73032176D01*
X46655266Y-73092919D01*
X46664189Y-73094202D01*
X46680100Y-73096490D01*
X46800000Y-73113729D01*
X47950000Y-73113729D01*
X47952514Y-73113528D01*
X48024647Y-73107760D01*
X48024650Y-73107759D01*
X48031645Y-73107200D01*
X48038343Y-73105110D01*
X48038345Y-73105110D01*
X48058981Y-73098672D01*
X48114438Y-73094238D01*
X48172214Y-73102545D01*
X48250000Y-73113729D01*
X48965635Y-73113729D01*
X49033756Y-73133731D01*
X49054730Y-73150634D01*
X49249778Y-73345682D01*
X49283804Y-73407994D01*
X49282100Y-73468448D01*
X49260989Y-73544570D01*
X49260441Y-73549700D01*
X49260440Y-73549704D01*
X49254706Y-73603365D01*
X49237251Y-73766695D01*
X49237548Y-73771848D01*
X49237548Y-73771851D01*
X49243011Y-73866590D01*
X49250110Y-73989715D01*
X49251247Y-73994761D01*
X49251248Y-73994767D01*
X49271119Y-74082939D01*
X49299222Y-74207639D01*
X49339346Y-74306453D01*
X49380982Y-74408990D01*
X49383266Y-74414616D01*
X49499987Y-74605088D01*
X49646250Y-74773938D01*
X49818126Y-74916632D01*
X50011000Y-75029338D01*
X50219692Y-75109030D01*
X50224760Y-75110061D01*
X50224763Y-75110062D01*
X50332017Y-75131883D01*
X50438597Y-75153567D01*
X50443772Y-75153757D01*
X50443774Y-75153757D01*
X50656673Y-75161564D01*
X50656677Y-75161564D01*
X50661837Y-75161753D01*
X50666957Y-75161097D01*
X50666959Y-75161097D01*
X50878288Y-75134025D01*
X50878289Y-75134025D01*
X50883416Y-75133368D01*
X50888366Y-75131883D01*
X51092429Y-75070661D01*
X51092434Y-75070659D01*
X51097384Y-75069174D01*
X51297994Y-74970896D01*
X51479860Y-74841173D01*
X51491737Y-74829338D01*
X51604837Y-74716632D01*
X51638096Y-74683489D01*
X51671122Y-74637529D01*
X51736628Y-74546367D01*
X51762174Y-74510815D01*
X51818169Y-74467167D01*
X51888872Y-74460721D01*
X51951837Y-74493524D01*
X51971930Y-74518507D01*
X52022287Y-74600684D01*
X52022291Y-74600689D01*
X52024987Y-74605088D01*
X52171250Y-74773938D01*
X52343126Y-74916632D01*
X52536000Y-75029338D01*
X52744692Y-75109030D01*
X52749760Y-75110061D01*
X52749763Y-75110062D01*
X52857017Y-75131883D01*
X52963597Y-75153567D01*
X52968772Y-75153757D01*
X52968774Y-75153757D01*
X53181673Y-75161564D01*
X53181677Y-75161564D01*
X53186837Y-75161753D01*
X53191957Y-75161097D01*
X53191959Y-75161097D01*
X53403288Y-75134025D01*
X53403289Y-75134025D01*
X53408416Y-75133368D01*
X53413366Y-75131883D01*
X53617429Y-75070661D01*
X53617434Y-75070659D01*
X53622384Y-75069174D01*
X53822994Y-74970896D01*
X54004860Y-74841173D01*
X54016737Y-74829338D01*
X54129837Y-74716632D01*
X54163096Y-74683489D01*
X54196122Y-74637529D01*
X54290435Y-74506277D01*
X54293453Y-74502077D01*
X54299536Y-74489770D01*
X54390136Y-74306453D01*
X54390137Y-74306451D01*
X54392430Y-74301811D01*
X54424900Y-74194940D01*
X54455865Y-74093023D01*
X54455865Y-74093021D01*
X54457370Y-74088069D01*
X54486529Y-73866590D01*
X54488156Y-73800000D01*
X54469852Y-73577361D01*
X54415431Y-73360702D01*
X54326354Y-73155840D01*
X54221522Y-72993794D01*
X54207822Y-72972617D01*
X54207820Y-72972614D01*
X54205014Y-72968277D01*
X54054670Y-72803051D01*
X54050619Y-72799852D01*
X54050615Y-72799848D01*
X53883414Y-72667800D01*
X53883410Y-72667798D01*
X53879359Y-72664598D01*
X53683789Y-72556638D01*
X53678920Y-72554914D01*
X53678916Y-72554912D01*
X53478087Y-72483795D01*
X53478083Y-72483794D01*
X53473212Y-72482069D01*
X53468119Y-72481162D01*
X53468116Y-72481161D01*
X53365907Y-72462955D01*
X53298908Y-72428003D01*
X53217768Y-72346863D01*
X56263050Y-72346863D01*
X56275309Y-72559477D01*
X56276745Y-72569697D01*
X56323565Y-72777446D01*
X56326645Y-72787275D01*
X56406770Y-72984603D01*
X56411413Y-72993794D01*
X56491460Y-73124420D01*
X56501916Y-73133880D01*
X56510694Y-73130096D01*
X57252978Y-72387812D01*
X57260592Y-72373868D01*
X57260461Y-72372035D01*
X57256210Y-72365420D01*
X56514849Y-71624059D01*
X56503313Y-71617759D01*
X56491031Y-71627382D01*
X56443089Y-71697662D01*
X56438004Y-71706613D01*
X56348338Y-71899783D01*
X56344775Y-71909470D01*
X56287864Y-72114681D01*
X56285933Y-72124800D01*
X56263302Y-72336574D01*
X56263050Y-72346863D01*
X53217768Y-72346863D01*
X51563847Y-70692942D01*
X51529821Y-70630630D01*
X51534886Y-70559815D01*
X51577433Y-70502979D01*
X51626745Y-70480600D01*
X51627244Y-70480494D01*
X51682288Y-70468794D01*
X51730985Y-70447113D01*
X51850722Y-70393803D01*
X51850724Y-70393802D01*
X51856752Y-70391118D01*
X52011253Y-70278866D01*
X52034907Y-70252596D01*
X52134621Y-70141852D01*
X52134622Y-70141851D01*
X52139040Y-70136944D01*
X52234527Y-69971556D01*
X52293542Y-69789928D01*
X52294758Y-69778365D01*
X52312814Y-69606565D01*
X52313504Y-69600000D01*
X52308497Y-69552361D01*
X52294232Y-69416635D01*
X52294232Y-69416633D01*
X52293542Y-69410072D01*
X52234527Y-69228444D01*
X52202171Y-69172401D01*
X52171698Y-69119621D01*
X52139040Y-69063056D01*
X52119164Y-69040981D01*
X52088447Y-68976973D01*
X52097212Y-68906520D01*
X52142676Y-68851989D01*
X52210404Y-68830695D01*
X52235219Y-68832683D01*
X52276038Y-68840064D01*
X52367608Y-68856623D01*
X52367615Y-68856624D01*
X52371692Y-68857361D01*
X52389414Y-68858197D01*
X52394356Y-68858430D01*
X52394363Y-68858430D01*
X52395844Y-68858500D01*
X52557890Y-68858500D01*
X52624809Y-68852822D01*
X52724409Y-68844371D01*
X52724413Y-68844370D01*
X52729720Y-68843920D01*
X52734875Y-68842582D01*
X52734881Y-68842581D01*
X52947703Y-68787343D01*
X52947707Y-68787342D01*
X52952872Y-68786001D01*
X52957738Y-68783809D01*
X52957741Y-68783808D01*
X53144208Y-68699811D01*
X53163075Y-68691312D01*
X53354319Y-68562559D01*
X53360820Y-68556358D01*
X53385828Y-68532501D01*
X53448925Y-68499954D01*
X53519602Y-68506686D01*
X53575419Y-68550560D01*
X53598110Y-68610501D01*
X53606458Y-68689928D01*
X53665473Y-68871556D01*
X53668776Y-68877278D01*
X53668777Y-68877279D01*
X53689632Y-68913401D01*
X53760960Y-69036944D01*
X53765378Y-69041851D01*
X53765379Y-69041852D01*
X53841589Y-69126492D01*
X53888747Y-69178866D01*
X53949108Y-69222721D01*
X54036763Y-69286406D01*
X54043248Y-69291118D01*
X54049276Y-69293802D01*
X54049278Y-69293803D01*
X54154656Y-69340720D01*
X54217712Y-69368794D01*
X54311113Y-69388647D01*
X54398056Y-69407128D01*
X54398061Y-69407128D01*
X54404513Y-69408500D01*
X54595487Y-69408500D01*
X54601939Y-69407128D01*
X54601944Y-69407128D01*
X54688887Y-69388647D01*
X54782288Y-69368794D01*
X54845344Y-69340720D01*
X54950722Y-69293803D01*
X54950724Y-69293802D01*
X54956752Y-69291118D01*
X54963238Y-69286406D01*
X55050892Y-69222721D01*
X55111253Y-69178866D01*
X55158411Y-69126492D01*
X55234621Y-69041852D01*
X55234622Y-69041851D01*
X55239040Y-69036944D01*
X55310368Y-68913401D01*
X55331223Y-68877279D01*
X55331224Y-68877278D01*
X55334527Y-68871556D01*
X55393542Y-68689928D01*
X55395518Y-68671134D01*
X55412814Y-68506565D01*
X55413504Y-68500000D01*
X55411496Y-68480896D01*
X55394232Y-68316635D01*
X55394232Y-68316633D01*
X55393542Y-68310072D01*
X55334527Y-68128444D01*
X55328780Y-68118489D01*
X55285767Y-68043990D01*
X55239040Y-67963056D01*
X55209507Y-67930257D01*
X55178792Y-67866253D01*
X55187555Y-67795799D01*
X55214050Y-67756854D01*
X56089436Y-66881468D01*
X56151748Y-66847442D01*
X56222563Y-66852507D01*
X56279399Y-66895054D01*
X56304210Y-66961574D01*
X56299949Y-67004231D01*
X56285989Y-67054570D01*
X56262251Y-67276695D01*
X56262548Y-67281848D01*
X56262548Y-67281851D01*
X56272716Y-67458189D01*
X56275110Y-67499715D01*
X56276247Y-67504761D01*
X56276248Y-67504767D01*
X56297275Y-67598069D01*
X56324222Y-67717639D01*
X56376415Y-67846176D01*
X56402390Y-67910144D01*
X56408266Y-67924616D01*
X56413360Y-67932928D01*
X56516511Y-68101256D01*
X56524987Y-68115088D01*
X56671250Y-68283938D01*
X56843126Y-68426632D01*
X56868570Y-68441500D01*
X56916445Y-68469476D01*
X56965169Y-68521114D01*
X56978240Y-68590897D01*
X56951509Y-68656669D01*
X56911055Y-68690027D01*
X56898607Y-68696507D01*
X56894474Y-68699610D01*
X56894471Y-68699612D01*
X56724100Y-68827530D01*
X56719965Y-68830635D01*
X56565629Y-68992138D01*
X56562715Y-68996410D01*
X56562714Y-68996411D01*
X56478666Y-69119621D01*
X56439743Y-69176680D01*
X56418372Y-69222721D01*
X56385377Y-69293803D01*
X56345688Y-69379305D01*
X56285989Y-69594570D01*
X56262251Y-69816695D01*
X56262548Y-69821848D01*
X56262548Y-69821851D01*
X56272831Y-70000189D01*
X56275110Y-70039715D01*
X56276247Y-70044761D01*
X56276248Y-70044767D01*
X56295733Y-70131226D01*
X56324222Y-70257639D01*
X56362461Y-70351811D01*
X56402390Y-70450144D01*
X56408266Y-70464616D01*
X56524987Y-70655088D01*
X56671250Y-70823938D01*
X56843126Y-70966632D01*
X56867853Y-70981081D01*
X56903458Y-71001887D01*
X56952182Y-71053525D01*
X56965253Y-71123308D01*
X56938522Y-71189080D01*
X56907033Y-71217294D01*
X56894734Y-71225040D01*
X56874677Y-71240099D01*
X56866223Y-71251427D01*
X56872968Y-71263758D01*
X57895115Y-72285905D01*
X57929141Y-72348217D01*
X57924076Y-72419032D01*
X57895115Y-72464095D01*
X56871737Y-73487473D01*
X56864977Y-73499853D01*
X56870258Y-73506907D01*
X57031756Y-73601279D01*
X57041042Y-73605729D01*
X57240001Y-73681703D01*
X57249899Y-73684579D01*
X57458595Y-73727038D01*
X57468823Y-73728257D01*
X57681650Y-73736062D01*
X57691936Y-73735595D01*
X57857990Y-73714323D01*
X57928100Y-73725508D01*
X57981034Y-73772821D01*
X58000000Y-73839302D01*
X58000000Y-75666000D01*
X57979998Y-75734121D01*
X57926342Y-75780614D01*
X57874000Y-75792000D01*
X20384000Y-75792000D01*
X20315879Y-75771998D01*
X20269386Y-75718342D01*
X20258000Y-75666000D01*
X20258000Y-74614488D01*
X20278002Y-74546367D01*
X20331658Y-74499874D01*
X20401932Y-74489770D01*
X20466512Y-74519264D01*
X20501982Y-74570258D01*
X20513388Y-74600684D01*
X20549385Y-74696705D01*
X20636739Y-74813261D01*
X20753295Y-74900615D01*
X20889684Y-74951745D01*
X20951866Y-74958500D01*
X22748134Y-74958500D01*
X22810316Y-74951745D01*
X22946705Y-74900615D01*
X23063261Y-74813261D01*
X23150615Y-74696705D01*
X23186612Y-74600684D01*
X23194598Y-74579382D01*
X23237240Y-74522618D01*
X23303802Y-74497918D01*
X23373150Y-74513126D01*
X23407817Y-74541114D01*
X23436250Y-74573938D01*
X23608126Y-74716632D01*
X23801000Y-74829338D01*
X23805825Y-74831180D01*
X23805826Y-74831181D01*
X23878612Y-74858975D01*
X24009692Y-74909030D01*
X24014760Y-74910061D01*
X24014763Y-74910062D01*
X24122017Y-74931883D01*
X24228597Y-74953567D01*
X24233772Y-74953757D01*
X24233774Y-74953757D01*
X24446673Y-74961564D01*
X24446677Y-74961564D01*
X24451837Y-74961753D01*
X24456957Y-74961097D01*
X24456959Y-74961097D01*
X24668288Y-74934025D01*
X24668289Y-74934025D01*
X24673416Y-74933368D01*
X24678366Y-74931883D01*
X24882429Y-74870661D01*
X24882434Y-74870659D01*
X24887384Y-74869174D01*
X25087994Y-74770896D01*
X25269860Y-74641173D01*
X25296639Y-74614488D01*
X25409443Y-74502077D01*
X25428096Y-74483489D01*
X25439825Y-74467167D01*
X25558453Y-74302077D01*
X25559776Y-74303028D01*
X25606645Y-74259857D01*
X25676580Y-74247625D01*
X25742026Y-74275144D01*
X25769875Y-74306994D01*
X25829987Y-74405088D01*
X25976250Y-74573938D01*
X26148126Y-74716632D01*
X26341000Y-74829338D01*
X26345825Y-74831180D01*
X26345826Y-74831181D01*
X26418612Y-74858975D01*
X26549692Y-74909030D01*
X26554760Y-74910061D01*
X26554763Y-74910062D01*
X26662017Y-74931883D01*
X26768597Y-74953567D01*
X26773772Y-74953757D01*
X26773774Y-74953757D01*
X26986673Y-74961564D01*
X26986677Y-74961564D01*
X26991837Y-74961753D01*
X26996957Y-74961097D01*
X26996959Y-74961097D01*
X27208288Y-74934025D01*
X27208289Y-74934025D01*
X27213416Y-74933368D01*
X27218366Y-74931883D01*
X27422429Y-74870661D01*
X27422434Y-74870659D01*
X27427384Y-74869174D01*
X27627994Y-74770896D01*
X27809860Y-74641173D01*
X27836639Y-74614488D01*
X27949443Y-74502077D01*
X27968096Y-74483489D01*
X27979825Y-74467167D01*
X28098453Y-74302077D01*
X28099776Y-74303028D01*
X28146645Y-74259857D01*
X28216580Y-74247625D01*
X28282026Y-74275144D01*
X28309875Y-74306994D01*
X28369987Y-74405088D01*
X28516250Y-74573938D01*
X28688126Y-74716632D01*
X28881000Y-74829338D01*
X28885825Y-74831180D01*
X28885826Y-74831181D01*
X28958612Y-74858975D01*
X29089692Y-74909030D01*
X29094760Y-74910061D01*
X29094763Y-74910062D01*
X29202017Y-74931883D01*
X29308597Y-74953567D01*
X29313772Y-74953757D01*
X29313774Y-74953757D01*
X29526673Y-74961564D01*
X29526677Y-74961564D01*
X29531837Y-74961753D01*
X29536957Y-74961097D01*
X29536959Y-74961097D01*
X29748288Y-74934025D01*
X29748289Y-74934025D01*
X29753416Y-74933368D01*
X29758366Y-74931883D01*
X29962429Y-74870661D01*
X29962434Y-74870659D01*
X29967384Y-74869174D01*
X30167994Y-74770896D01*
X30349860Y-74641173D01*
X30376639Y-74614488D01*
X30489443Y-74502077D01*
X30508096Y-74483489D01*
X30519825Y-74467167D01*
X30638453Y-74302077D01*
X30639776Y-74303028D01*
X30686645Y-74259857D01*
X30756580Y-74247625D01*
X30822026Y-74275144D01*
X30849875Y-74306994D01*
X30909987Y-74405088D01*
X31056250Y-74573938D01*
X31228126Y-74716632D01*
X31421000Y-74829338D01*
X31425825Y-74831180D01*
X31425826Y-74831181D01*
X31498612Y-74858975D01*
X31629692Y-74909030D01*
X31634760Y-74910061D01*
X31634763Y-74910062D01*
X31742017Y-74931883D01*
X31848597Y-74953567D01*
X31853772Y-74953757D01*
X31853774Y-74953757D01*
X32066673Y-74961564D01*
X32066677Y-74961564D01*
X32071837Y-74961753D01*
X32076957Y-74961097D01*
X32076959Y-74961097D01*
X32288288Y-74934025D01*
X32288289Y-74934025D01*
X32293416Y-74933368D01*
X32298366Y-74931883D01*
X32502429Y-74870661D01*
X32502434Y-74870659D01*
X32507384Y-74869174D01*
X32707994Y-74770896D01*
X32889860Y-74641173D01*
X32916639Y-74614488D01*
X33029443Y-74502077D01*
X33048096Y-74483489D01*
X33059825Y-74467167D01*
X33178453Y-74302077D01*
X33179776Y-74303028D01*
X33226645Y-74259857D01*
X33296580Y-74247625D01*
X33362026Y-74275144D01*
X33389875Y-74306994D01*
X33449987Y-74405088D01*
X33596250Y-74573938D01*
X33768126Y-74716632D01*
X33961000Y-74829338D01*
X33965825Y-74831180D01*
X33965826Y-74831181D01*
X34038612Y-74858975D01*
X34169692Y-74909030D01*
X34174760Y-74910061D01*
X34174763Y-74910062D01*
X34282017Y-74931883D01*
X34388597Y-74953567D01*
X34393772Y-74953757D01*
X34393774Y-74953757D01*
X34606673Y-74961564D01*
X34606677Y-74961564D01*
X34611837Y-74961753D01*
X34616957Y-74961097D01*
X34616959Y-74961097D01*
X34828288Y-74934025D01*
X34828289Y-74934025D01*
X34833416Y-74933368D01*
X34838366Y-74931883D01*
X35042429Y-74870661D01*
X35042434Y-74870659D01*
X35047384Y-74869174D01*
X35247994Y-74770896D01*
X35429860Y-74641173D01*
X35456639Y-74614488D01*
X35569443Y-74502077D01*
X35588096Y-74483489D01*
X35599825Y-74467167D01*
X35715435Y-74306277D01*
X35718453Y-74302077D01*
X35739320Y-74259857D01*
X35815136Y-74106453D01*
X35815137Y-74106451D01*
X35817430Y-74101811D01*
X35882370Y-73888069D01*
X35911529Y-73666590D01*
X35913156Y-73600000D01*
X35894852Y-73377361D01*
X35840431Y-73160702D01*
X35751354Y-72955840D01*
X35659213Y-72813411D01*
X35632822Y-72772617D01*
X35632820Y-72772614D01*
X35630014Y-72768277D01*
X35479670Y-72603051D01*
X35475619Y-72599852D01*
X35475615Y-72599848D01*
X35308414Y-72467800D01*
X35308410Y-72467798D01*
X35304359Y-72464598D01*
X35108789Y-72356638D01*
X35103920Y-72354914D01*
X35103916Y-72354912D01*
X34903087Y-72283795D01*
X34903083Y-72283794D01*
X34898212Y-72282069D01*
X34893119Y-72281162D01*
X34893116Y-72281161D01*
X34683373Y-72243800D01*
X34683367Y-72243799D01*
X34678284Y-72242894D01*
X34604452Y-72241992D01*
X34460081Y-72240228D01*
X34460079Y-72240228D01*
X34454911Y-72240165D01*
X34234091Y-72273955D01*
X34021756Y-72343357D01*
X33966666Y-72372035D01*
X33830669Y-72442831D01*
X33823607Y-72446507D01*
X33819474Y-72449610D01*
X33819471Y-72449612D01*
X33659533Y-72569697D01*
X33644965Y-72580635D01*
X33626605Y-72599848D01*
X33533729Y-72697037D01*
X33490629Y-72742138D01*
X33383201Y-72899621D01*
X33328293Y-72944621D01*
X33257768Y-72952792D01*
X33194021Y-72921538D01*
X33173324Y-72897054D01*
X33092822Y-72772617D01*
X33092820Y-72772614D01*
X33090014Y-72768277D01*
X32939670Y-72603051D01*
X32935619Y-72599852D01*
X32935615Y-72599848D01*
X32768414Y-72467800D01*
X32768410Y-72467798D01*
X32764359Y-72464598D01*
X32568789Y-72356638D01*
X32563920Y-72354914D01*
X32563916Y-72354912D01*
X32363087Y-72283795D01*
X32363083Y-72283794D01*
X32358212Y-72282069D01*
X32353119Y-72281162D01*
X32353116Y-72281161D01*
X32143373Y-72243800D01*
X32143367Y-72243799D01*
X32138284Y-72242894D01*
X32064452Y-72241992D01*
X31920081Y-72240228D01*
X31920079Y-72240228D01*
X31914911Y-72240165D01*
X31694091Y-72273955D01*
X31481756Y-72343357D01*
X31426666Y-72372035D01*
X31290669Y-72442831D01*
X31283607Y-72446507D01*
X31279474Y-72449610D01*
X31279471Y-72449612D01*
X31119533Y-72569697D01*
X31104965Y-72580635D01*
X31086605Y-72599848D01*
X30993729Y-72697037D01*
X30950629Y-72742138D01*
X30843201Y-72899621D01*
X30788293Y-72944621D01*
X30717768Y-72952792D01*
X30654021Y-72921538D01*
X30633324Y-72897054D01*
X30552822Y-72772617D01*
X30552820Y-72772614D01*
X30550014Y-72768277D01*
X30399670Y-72603051D01*
X30395619Y-72599852D01*
X30395615Y-72599848D01*
X30228414Y-72467800D01*
X30228410Y-72467798D01*
X30224359Y-72464598D01*
X30028789Y-72356638D01*
X30023920Y-72354914D01*
X30023916Y-72354912D01*
X29823087Y-72283795D01*
X29823083Y-72283794D01*
X29818212Y-72282069D01*
X29813119Y-72281162D01*
X29813116Y-72281161D01*
X29603373Y-72243800D01*
X29603367Y-72243799D01*
X29598284Y-72242894D01*
X29524452Y-72241992D01*
X29380081Y-72240228D01*
X29380079Y-72240228D01*
X29374911Y-72240165D01*
X29154091Y-72273955D01*
X28941756Y-72343357D01*
X28886666Y-72372035D01*
X28750669Y-72442831D01*
X28743607Y-72446507D01*
X28739474Y-72449610D01*
X28739471Y-72449612D01*
X28579533Y-72569697D01*
X28564965Y-72580635D01*
X28546605Y-72599848D01*
X28453729Y-72697037D01*
X28410629Y-72742138D01*
X28303201Y-72899621D01*
X28248293Y-72944621D01*
X28177768Y-72952792D01*
X28114021Y-72921538D01*
X28093324Y-72897054D01*
X28012822Y-72772617D01*
X28012820Y-72772614D01*
X28010014Y-72768277D01*
X27859670Y-72603051D01*
X27855619Y-72599852D01*
X27855615Y-72599848D01*
X27688414Y-72467800D01*
X27688410Y-72467798D01*
X27684359Y-72464598D01*
X27488789Y-72356638D01*
X27483920Y-72354914D01*
X27483916Y-72354912D01*
X27283087Y-72283795D01*
X27283083Y-72283794D01*
X27278212Y-72282069D01*
X27273119Y-72281162D01*
X27273116Y-72281161D01*
X27063373Y-72243800D01*
X27063367Y-72243799D01*
X27058284Y-72242894D01*
X26984452Y-72241992D01*
X26840081Y-72240228D01*
X26840079Y-72240228D01*
X26834911Y-72240165D01*
X26614091Y-72273955D01*
X26401756Y-72343357D01*
X26346666Y-72372035D01*
X26210669Y-72442831D01*
X26203607Y-72446507D01*
X26199474Y-72449610D01*
X26199471Y-72449612D01*
X26039533Y-72569697D01*
X26024965Y-72580635D01*
X26006605Y-72599848D01*
X25913729Y-72697037D01*
X25870629Y-72742138D01*
X25763201Y-72899621D01*
X25708293Y-72944621D01*
X25637768Y-72952792D01*
X25574021Y-72921538D01*
X25553324Y-72897054D01*
X25472822Y-72772617D01*
X25472820Y-72772614D01*
X25470014Y-72768277D01*
X25319670Y-72603051D01*
X25315619Y-72599852D01*
X25315615Y-72599848D01*
X25148414Y-72467800D01*
X25148410Y-72467798D01*
X25144359Y-72464598D01*
X24948789Y-72356638D01*
X24943920Y-72354914D01*
X24943916Y-72354912D01*
X24743087Y-72283795D01*
X24743083Y-72283794D01*
X24738212Y-72282069D01*
X24733119Y-72281162D01*
X24733116Y-72281161D01*
X24523373Y-72243800D01*
X24523367Y-72243799D01*
X24518284Y-72242894D01*
X24444452Y-72241992D01*
X24300081Y-72240228D01*
X24300079Y-72240228D01*
X24294911Y-72240165D01*
X24074091Y-72273955D01*
X23861756Y-72343357D01*
X23806666Y-72372035D01*
X23670669Y-72442831D01*
X23663607Y-72446507D01*
X23659474Y-72449610D01*
X23659471Y-72449612D01*
X23499533Y-72569697D01*
X23484965Y-72580635D01*
X23407115Y-72662101D01*
X23404283Y-72665064D01*
X23342759Y-72700494D01*
X23271846Y-72697037D01*
X23214060Y-72655791D01*
X23195207Y-72622243D01*
X23153767Y-72511703D01*
X23150615Y-72503295D01*
X23063261Y-72386739D01*
X22946705Y-72299385D01*
X22810316Y-72248255D01*
X22748134Y-72241500D01*
X20951866Y-72241500D01*
X20889684Y-72248255D01*
X20753295Y-72299385D01*
X20636739Y-72386739D01*
X20549385Y-72503295D01*
X20546233Y-72511703D01*
X20501982Y-72629742D01*
X20459340Y-72686506D01*
X20392779Y-72711206D01*
X20323430Y-72695999D01*
X20273312Y-72645713D01*
X20258000Y-72585512D01*
X20258000Y-67201695D01*
X20562251Y-67201695D01*
X20562548Y-67206848D01*
X20562548Y-67206851D01*
X20571907Y-67369166D01*
X20575110Y-67424715D01*
X20576247Y-67429761D01*
X20576248Y-67429767D01*
X20598392Y-67528023D01*
X20624222Y-67642639D01*
X20708266Y-67849616D01*
X20747916Y-67914319D01*
X20822291Y-68035688D01*
X20824987Y-68040088D01*
X20971250Y-68208938D01*
X20975230Y-68212242D01*
X20979981Y-68216187D01*
X21019616Y-68275090D01*
X21021113Y-68346071D01*
X20983997Y-68406593D01*
X20943725Y-68431112D01*
X20870927Y-68458403D01*
X20828295Y-68474385D01*
X20711739Y-68561739D01*
X20624385Y-68678295D01*
X20573255Y-68814684D01*
X20566500Y-68876866D01*
X20566500Y-70673134D01*
X20573255Y-70735316D01*
X20624385Y-70871705D01*
X20711739Y-70988261D01*
X20828295Y-71075615D01*
X20964684Y-71126745D01*
X21026866Y-71133500D01*
X22823134Y-71133500D01*
X22885316Y-71126745D01*
X23021705Y-71075615D01*
X23138261Y-70988261D01*
X23225615Y-70871705D01*
X23266150Y-70763579D01*
X23269598Y-70754382D01*
X23312240Y-70697618D01*
X23378802Y-70672918D01*
X23448150Y-70688126D01*
X23482817Y-70716114D01*
X23511250Y-70748938D01*
X23683126Y-70891632D01*
X23876000Y-71004338D01*
X23880825Y-71006180D01*
X23880826Y-71006181D01*
X23919361Y-71020896D01*
X24084692Y-71084030D01*
X24089760Y-71085061D01*
X24089763Y-71085062D01*
X24174280Y-71102257D01*
X24303597Y-71128567D01*
X24308772Y-71128757D01*
X24308774Y-71128757D01*
X24521673Y-71136564D01*
X24521677Y-71136564D01*
X24526837Y-71136753D01*
X24531957Y-71136097D01*
X24531959Y-71136097D01*
X24743288Y-71109025D01*
X24743289Y-71109025D01*
X24748416Y-71108368D01*
X24776308Y-71100000D01*
X24957429Y-71045661D01*
X24957434Y-71045659D01*
X24962384Y-71044174D01*
X25162994Y-70945896D01*
X25344860Y-70816173D01*
X25503096Y-70658489D01*
X25536339Y-70612227D01*
X25633453Y-70477077D01*
X25634776Y-70478028D01*
X25681645Y-70434857D01*
X25751580Y-70422625D01*
X25817026Y-70450144D01*
X25844875Y-70481994D01*
X25904987Y-70580088D01*
X26051250Y-70748938D01*
X26223126Y-70891632D01*
X26416000Y-71004338D01*
X26420825Y-71006180D01*
X26420826Y-71006181D01*
X26459361Y-71020896D01*
X26624692Y-71084030D01*
X26629760Y-71085061D01*
X26629763Y-71085062D01*
X26714280Y-71102257D01*
X26843597Y-71128567D01*
X26848772Y-71128757D01*
X26848774Y-71128757D01*
X27061673Y-71136564D01*
X27061677Y-71136564D01*
X27066837Y-71136753D01*
X27071957Y-71136097D01*
X27071959Y-71136097D01*
X27283288Y-71109025D01*
X27283289Y-71109025D01*
X27288416Y-71108368D01*
X27316308Y-71100000D01*
X27497429Y-71045661D01*
X27497434Y-71045659D01*
X27502384Y-71044174D01*
X27702994Y-70945896D01*
X27884860Y-70816173D01*
X28043096Y-70658489D01*
X28076339Y-70612227D01*
X28173453Y-70477077D01*
X28174776Y-70478028D01*
X28221645Y-70434857D01*
X28291580Y-70422625D01*
X28357026Y-70450144D01*
X28384875Y-70481994D01*
X28444987Y-70580088D01*
X28591250Y-70748938D01*
X28763126Y-70891632D01*
X28956000Y-71004338D01*
X28960825Y-71006180D01*
X28960826Y-71006181D01*
X28999361Y-71020896D01*
X29164692Y-71084030D01*
X29169760Y-71085061D01*
X29169763Y-71085062D01*
X29254280Y-71102257D01*
X29383597Y-71128567D01*
X29388772Y-71128757D01*
X29388774Y-71128757D01*
X29601673Y-71136564D01*
X29601677Y-71136564D01*
X29606837Y-71136753D01*
X29611957Y-71136097D01*
X29611959Y-71136097D01*
X29823288Y-71109025D01*
X29823289Y-71109025D01*
X29828416Y-71108368D01*
X29856308Y-71100000D01*
X30037429Y-71045661D01*
X30037434Y-71045659D01*
X30042384Y-71044174D01*
X30242994Y-70945896D01*
X30424860Y-70816173D01*
X30583096Y-70658489D01*
X30616339Y-70612227D01*
X30713453Y-70477077D01*
X30714776Y-70478028D01*
X30761645Y-70434857D01*
X30831580Y-70422625D01*
X30897026Y-70450144D01*
X30924875Y-70481994D01*
X30984987Y-70580088D01*
X31131250Y-70748938D01*
X31303126Y-70891632D01*
X31496000Y-71004338D01*
X31500825Y-71006180D01*
X31500826Y-71006181D01*
X31539361Y-71020896D01*
X31704692Y-71084030D01*
X31709760Y-71085061D01*
X31709763Y-71085062D01*
X31794280Y-71102257D01*
X31923597Y-71128567D01*
X31928772Y-71128757D01*
X31928774Y-71128757D01*
X32141673Y-71136564D01*
X32141677Y-71136564D01*
X32146837Y-71136753D01*
X32151957Y-71136097D01*
X32151959Y-71136097D01*
X32363288Y-71109025D01*
X32363289Y-71109025D01*
X32368416Y-71108368D01*
X32396308Y-71100000D01*
X32577429Y-71045661D01*
X32577434Y-71045659D01*
X32582384Y-71044174D01*
X32782994Y-70945896D01*
X32964860Y-70816173D01*
X33123096Y-70658489D01*
X33156339Y-70612227D01*
X33250435Y-70481277D01*
X33253453Y-70477077D01*
X33261978Y-70459829D01*
X33350136Y-70281453D01*
X33350137Y-70281451D01*
X33352430Y-70276811D01*
X33417370Y-70063069D01*
X33446529Y-69841590D01*
X33447814Y-69789013D01*
X33448074Y-69778365D01*
X33448074Y-69778361D01*
X33448156Y-69775000D01*
X33429852Y-69552361D01*
X33375431Y-69335702D01*
X33286354Y-69130840D01*
X33165014Y-68943277D01*
X33014670Y-68778051D01*
X33010619Y-68774852D01*
X33010615Y-68774848D01*
X32843414Y-68642800D01*
X32843410Y-68642798D01*
X32839359Y-68639598D01*
X32798053Y-68616796D01*
X32748084Y-68566364D01*
X32733312Y-68496921D01*
X32758428Y-68430516D01*
X32785780Y-68403909D01*
X32829603Y-68372650D01*
X32964860Y-68276173D01*
X33123096Y-68118489D01*
X33131912Y-68106221D01*
X33250435Y-67941277D01*
X33253453Y-67937077D01*
X33261978Y-67919829D01*
X33350136Y-67741453D01*
X33350137Y-67741451D01*
X33352430Y-67736811D01*
X33411663Y-67541852D01*
X33415865Y-67528023D01*
X33415865Y-67528021D01*
X33417370Y-67523069D01*
X33446529Y-67301590D01*
X33447263Y-67271562D01*
X33448074Y-67238365D01*
X33448074Y-67238361D01*
X33448156Y-67235000D01*
X33429852Y-67012361D01*
X33375431Y-66795702D01*
X33286354Y-66590840D01*
X33246906Y-66529862D01*
X33167822Y-66407617D01*
X33167820Y-66407614D01*
X33165014Y-66403277D01*
X33014670Y-66238051D01*
X33010619Y-66234852D01*
X33010615Y-66234848D01*
X32843414Y-66102800D01*
X32843410Y-66102798D01*
X32839359Y-66099598D01*
X32643789Y-65991638D01*
X32638920Y-65989914D01*
X32638916Y-65989912D01*
X32438087Y-65918795D01*
X32438083Y-65918794D01*
X32433212Y-65917069D01*
X32428119Y-65916162D01*
X32428116Y-65916161D01*
X32218373Y-65878800D01*
X32218367Y-65878799D01*
X32213284Y-65877894D01*
X32139452Y-65876992D01*
X31995081Y-65875228D01*
X31995079Y-65875228D01*
X31989911Y-65875165D01*
X31769091Y-65908955D01*
X31556756Y-65978357D01*
X31358607Y-66081507D01*
X31354474Y-66084610D01*
X31354471Y-66084612D01*
X31220122Y-66185484D01*
X31179965Y-66215635D01*
X31025629Y-66377138D01*
X30918201Y-66534621D01*
X30863293Y-66579621D01*
X30792768Y-66587792D01*
X30729021Y-66556538D01*
X30708324Y-66532054D01*
X30627822Y-66407617D01*
X30627820Y-66407614D01*
X30625014Y-66403277D01*
X30474670Y-66238051D01*
X30470619Y-66234852D01*
X30470615Y-66234848D01*
X30303414Y-66102800D01*
X30303410Y-66102798D01*
X30299359Y-66099598D01*
X30103789Y-65991638D01*
X30098920Y-65989914D01*
X30098916Y-65989912D01*
X29898087Y-65918795D01*
X29898083Y-65918794D01*
X29893212Y-65917069D01*
X29888119Y-65916162D01*
X29888116Y-65916161D01*
X29678373Y-65878800D01*
X29678367Y-65878799D01*
X29673284Y-65877894D01*
X29599452Y-65876992D01*
X29455081Y-65875228D01*
X29455079Y-65875228D01*
X29449911Y-65875165D01*
X29229091Y-65908955D01*
X29016756Y-65978357D01*
X28818607Y-66081507D01*
X28814474Y-66084610D01*
X28814471Y-66084612D01*
X28680122Y-66185484D01*
X28639965Y-66215635D01*
X28485629Y-66377138D01*
X28378201Y-66534621D01*
X28323293Y-66579621D01*
X28252768Y-66587792D01*
X28189021Y-66556538D01*
X28168324Y-66532054D01*
X28087822Y-66407617D01*
X28087820Y-66407614D01*
X28085014Y-66403277D01*
X27934670Y-66238051D01*
X27930619Y-66234852D01*
X27930615Y-66234848D01*
X27763414Y-66102800D01*
X27763410Y-66102798D01*
X27759359Y-66099598D01*
X27563789Y-65991638D01*
X27558920Y-65989914D01*
X27558916Y-65989912D01*
X27358087Y-65918795D01*
X27358083Y-65918794D01*
X27353212Y-65917069D01*
X27348119Y-65916162D01*
X27348116Y-65916161D01*
X27138373Y-65878800D01*
X27138367Y-65878799D01*
X27133284Y-65877894D01*
X27059452Y-65876992D01*
X26915081Y-65875228D01*
X26915079Y-65875228D01*
X26909911Y-65875165D01*
X26689091Y-65908955D01*
X26476756Y-65978357D01*
X26278607Y-66081507D01*
X26274474Y-66084610D01*
X26274471Y-66084612D01*
X26140122Y-66185484D01*
X26099965Y-66215635D01*
X25945629Y-66377138D01*
X25838201Y-66534621D01*
X25783293Y-66579621D01*
X25712768Y-66587792D01*
X25649021Y-66556538D01*
X25628324Y-66532054D01*
X25547822Y-66407617D01*
X25547820Y-66407614D01*
X25545014Y-66403277D01*
X25394670Y-66238051D01*
X25390619Y-66234852D01*
X25390615Y-66234848D01*
X25223414Y-66102800D01*
X25223410Y-66102798D01*
X25219359Y-66099598D01*
X25023789Y-65991638D01*
X25018920Y-65989914D01*
X25018916Y-65989912D01*
X24818087Y-65918795D01*
X24818083Y-65918794D01*
X24813212Y-65917069D01*
X24808119Y-65916162D01*
X24808116Y-65916161D01*
X24598373Y-65878800D01*
X24598367Y-65878799D01*
X24593284Y-65877894D01*
X24519452Y-65876992D01*
X24375081Y-65875228D01*
X24375079Y-65875228D01*
X24369911Y-65875165D01*
X24149091Y-65908955D01*
X23936756Y-65978357D01*
X23738607Y-66081507D01*
X23734474Y-66084610D01*
X23734471Y-66084612D01*
X23600122Y-66185484D01*
X23559965Y-66215635D01*
X23405629Y-66377138D01*
X23298201Y-66534621D01*
X23243293Y-66579621D01*
X23172768Y-66587792D01*
X23109021Y-66556538D01*
X23088324Y-66532054D01*
X23007822Y-66407617D01*
X23007820Y-66407614D01*
X23005014Y-66403277D01*
X22854670Y-66238051D01*
X22850619Y-66234852D01*
X22850615Y-66234848D01*
X22683414Y-66102800D01*
X22683410Y-66102798D01*
X22679359Y-66099598D01*
X22483789Y-65991638D01*
X22478920Y-65989914D01*
X22478916Y-65989912D01*
X22278087Y-65918795D01*
X22278083Y-65918794D01*
X22273212Y-65917069D01*
X22268119Y-65916162D01*
X22268116Y-65916161D01*
X22058373Y-65878800D01*
X22058367Y-65878799D01*
X22053284Y-65877894D01*
X21979452Y-65876992D01*
X21835081Y-65875228D01*
X21835079Y-65875228D01*
X21829911Y-65875165D01*
X21609091Y-65908955D01*
X21396756Y-65978357D01*
X21198607Y-66081507D01*
X21194474Y-66084610D01*
X21194471Y-66084612D01*
X21060122Y-66185484D01*
X21019965Y-66215635D01*
X20865629Y-66377138D01*
X20862720Y-66381403D01*
X20862714Y-66381411D01*
X20821982Y-66441122D01*
X20739743Y-66561680D01*
X20725253Y-66592897D01*
X20672229Y-66707128D01*
X20645688Y-66764305D01*
X20585989Y-66979570D01*
X20562251Y-67201695D01*
X20258000Y-67201695D01*
X20258000Y-63987490D01*
X20278002Y-63919369D01*
X20331658Y-63872876D01*
X20401932Y-63862772D01*
X20439630Y-63874435D01*
X20560461Y-63933891D01*
X20589171Y-63948018D01*
X20595349Y-63949627D01*
X20595351Y-63949628D01*
X20771425Y-63995492D01*
X20771428Y-63995492D01*
X20777607Y-63997102D01*
X20861597Y-64001504D01*
X20965683Y-64006959D01*
X20965687Y-64006959D01*
X20972064Y-64007293D01*
X21127413Y-63983799D01*
X21158285Y-63979130D01*
X21158286Y-63979130D01*
X21164599Y-63978175D01*
X21170585Y-63975972D01*
X21170591Y-63975971D01*
X21341360Y-63913140D01*
X21341365Y-63913138D01*
X21347346Y-63910937D01*
X21479224Y-63829169D01*
X21547660Y-63810271D01*
X21615448Y-63831373D01*
X21639257Y-63851944D01*
X21697387Y-63916504D01*
X21702729Y-63920385D01*
X21702731Y-63920387D01*
X21821031Y-64006337D01*
X21843385Y-64022578D01*
X21849413Y-64025262D01*
X21849415Y-64025263D01*
X22002217Y-64093295D01*
X22008248Y-64095980D01*
X22096508Y-64114740D01*
X22178311Y-64132128D01*
X22178315Y-64132128D01*
X22184768Y-64133500D01*
X22365232Y-64133500D01*
X22371685Y-64132128D01*
X22371689Y-64132128D01*
X22453492Y-64114740D01*
X22541752Y-64095980D01*
X22547783Y-64093295D01*
X22648751Y-64048341D01*
X22719118Y-64038907D01*
X22751249Y-64048341D01*
X22852217Y-64093295D01*
X22858248Y-64095980D01*
X22946508Y-64114740D01*
X23028311Y-64132128D01*
X23028315Y-64132128D01*
X23034768Y-64133500D01*
X23215232Y-64133500D01*
X23221685Y-64132128D01*
X23221689Y-64132128D01*
X23303492Y-64114740D01*
X23391752Y-64095980D01*
X23397783Y-64093295D01*
X23498751Y-64048341D01*
X23569118Y-64038907D01*
X23601249Y-64048341D01*
X23702217Y-64093295D01*
X23708248Y-64095980D01*
X23796508Y-64114740D01*
X23878311Y-64132128D01*
X23878315Y-64132128D01*
X23884768Y-64133500D01*
X24065232Y-64133500D01*
X24071685Y-64132128D01*
X24071689Y-64132128D01*
X24153492Y-64114740D01*
X24241752Y-64095980D01*
X24247783Y-64093295D01*
X24348751Y-64048341D01*
X24419118Y-64038907D01*
X24451249Y-64048341D01*
X24552217Y-64093295D01*
X24558248Y-64095980D01*
X24646508Y-64114740D01*
X24728311Y-64132128D01*
X24728315Y-64132128D01*
X24734768Y-64133500D01*
X24915232Y-64133500D01*
X24921685Y-64132128D01*
X24921689Y-64132128D01*
X25003492Y-64114740D01*
X25091752Y-64095980D01*
X25097783Y-64093295D01*
X25198751Y-64048341D01*
X25269118Y-64038907D01*
X25301249Y-64048341D01*
X25402217Y-64093295D01*
X25408248Y-64095980D01*
X25496508Y-64114740D01*
X25578311Y-64132128D01*
X25578315Y-64132128D01*
X25584768Y-64133500D01*
X25765232Y-64133500D01*
X25771685Y-64132128D01*
X25771689Y-64132128D01*
X25853492Y-64114740D01*
X25941752Y-64095980D01*
X25947783Y-64093295D01*
X26048751Y-64048341D01*
X26119118Y-64038907D01*
X26151249Y-64048341D01*
X26252217Y-64093295D01*
X26258248Y-64095980D01*
X26346508Y-64114740D01*
X26428311Y-64132128D01*
X26428315Y-64132128D01*
X26434768Y-64133500D01*
X26615232Y-64133500D01*
X26621685Y-64132128D01*
X26621689Y-64132128D01*
X26703492Y-64114740D01*
X26791752Y-64095980D01*
X26797783Y-64093295D01*
X26898751Y-64048341D01*
X26969118Y-64038907D01*
X27001249Y-64048341D01*
X27102217Y-64093295D01*
X27108248Y-64095980D01*
X27196508Y-64114740D01*
X27278311Y-64132128D01*
X27278315Y-64132128D01*
X27284768Y-64133500D01*
X27465232Y-64133500D01*
X27471685Y-64132128D01*
X27471689Y-64132128D01*
X27553492Y-64114740D01*
X27641752Y-64095980D01*
X27647783Y-64093295D01*
X27748751Y-64048341D01*
X27819118Y-64038907D01*
X27851249Y-64048341D01*
X27952217Y-64093295D01*
X27958248Y-64095980D01*
X28046508Y-64114740D01*
X28128311Y-64132128D01*
X28128315Y-64132128D01*
X28134768Y-64133500D01*
X28315232Y-64133500D01*
X28321685Y-64132128D01*
X28321689Y-64132128D01*
X28403492Y-64114740D01*
X28491752Y-64095980D01*
X28497783Y-64093295D01*
X28650585Y-64025263D01*
X28650587Y-64025262D01*
X28656615Y-64022578D01*
X28678969Y-64006337D01*
X28797269Y-63920387D01*
X28797271Y-63920385D01*
X28802613Y-63916504D01*
X28860813Y-63851866D01*
X28921256Y-63814628D01*
X28992240Y-63815979D01*
X29031670Y-63836617D01*
X29064453Y-63862046D01*
X29070176Y-63864862D01*
X29070179Y-63864864D01*
X29210461Y-63933891D01*
X29239171Y-63948018D01*
X29245349Y-63949627D01*
X29245351Y-63949628D01*
X29421425Y-63995492D01*
X29421428Y-63995492D01*
X29427607Y-63997102D01*
X29511597Y-64001504D01*
X29615683Y-64006959D01*
X29615687Y-64006959D01*
X29622064Y-64007293D01*
X29777413Y-63983799D01*
X29808285Y-63979130D01*
X29808286Y-63979130D01*
X29814599Y-63978175D01*
X29820585Y-63975972D01*
X29820591Y-63975971D01*
X29991360Y-63913140D01*
X29991365Y-63913138D01*
X29997346Y-63910937D01*
X30132127Y-63827369D01*
X30157418Y-63811688D01*
X30157419Y-63811687D01*
X30162840Y-63808326D01*
X30167633Y-63803794D01*
X30299685Y-63678919D01*
X30304322Y-63674534D01*
X30336595Y-63628444D01*
X30412346Y-63520259D01*
X30416011Y-63515025D01*
X30458256Y-63417402D01*
X30490810Y-63342175D01*
X30490811Y-63342171D01*
X30493345Y-63336316D01*
X30500200Y-63303502D01*
X30532176Y-63150443D01*
X30532177Y-63150438D01*
X30533165Y-63145707D01*
X30533500Y-63139315D01*
X30533500Y-61496337D01*
X30518765Y-61351273D01*
X30475654Y-61213703D01*
X30462444Y-61171549D01*
X30462442Y-61171544D01*
X30460535Y-61165459D01*
X30406441Y-61067872D01*
X30369223Y-61000729D01*
X30369221Y-61000726D01*
X30366130Y-60995150D01*
X30361981Y-60990309D01*
X30361978Y-60990305D01*
X30243560Y-60852145D01*
X30239409Y-60847302D01*
X30233736Y-60842901D01*
X30090594Y-60731869D01*
X30085547Y-60727954D01*
X30079824Y-60725138D01*
X30079821Y-60725136D01*
X29916556Y-60644800D01*
X29910829Y-60641982D01*
X29904651Y-60640373D01*
X29904649Y-60640372D01*
X29728575Y-60594508D01*
X29728572Y-60594508D01*
X29722393Y-60592898D01*
X29637138Y-60588430D01*
X29534317Y-60583041D01*
X29534313Y-60583041D01*
X29527936Y-60582707D01*
X29372587Y-60606201D01*
X29341715Y-60610870D01*
X29341714Y-60610870D01*
X29335401Y-60611825D01*
X29329415Y-60614028D01*
X29329409Y-60614029D01*
X29158640Y-60676860D01*
X29158635Y-60676862D01*
X29152654Y-60679063D01*
X29089662Y-60718120D01*
X29014006Y-60765029D01*
X28987160Y-60781674D01*
X28982527Y-60786055D01*
X28982526Y-60786056D01*
X28903204Y-60861067D01*
X28845678Y-60915466D01*
X28842016Y-60920696D01*
X28842015Y-60920697D01*
X28737653Y-61069742D01*
X28733989Y-61074975D01*
X28731452Y-61080837D01*
X28729447Y-61084425D01*
X28678753Y-61134131D01*
X28609233Y-61148538D01*
X28568211Y-61138061D01*
X28497787Y-61106706D01*
X28497779Y-61106703D01*
X28491752Y-61104020D01*
X28385539Y-61081444D01*
X28321689Y-61067872D01*
X28321685Y-61067872D01*
X28315232Y-61066500D01*
X28134768Y-61066500D01*
X28134768Y-61063492D01*
X28077762Y-61053031D01*
X28025946Y-61004497D01*
X28008500Y-60940528D01*
X28008500Y-60853768D01*
X28009027Y-60842585D01*
X28010702Y-60835092D01*
X28008562Y-60767001D01*
X28008500Y-60763044D01*
X28008500Y-60735144D01*
X28007996Y-60731153D01*
X28007063Y-60719311D01*
X28007056Y-60719068D01*
X28005674Y-60675111D01*
X28000021Y-60655652D01*
X27996012Y-60636293D01*
X27995290Y-60630581D01*
X27993474Y-60616203D01*
X27990558Y-60608837D01*
X27990556Y-60608831D01*
X27977200Y-60575098D01*
X27973355Y-60563868D01*
X27963230Y-60529017D01*
X27963230Y-60529016D01*
X27961019Y-60521407D01*
X27950705Y-60503966D01*
X27942008Y-60486213D01*
X27937472Y-60474758D01*
X27934552Y-60467383D01*
X27908563Y-60431612D01*
X27902047Y-60421692D01*
X27901125Y-60420133D01*
X27879542Y-60383638D01*
X27865221Y-60369317D01*
X27852380Y-60354283D01*
X27845131Y-60344306D01*
X27840472Y-60337893D01*
X27834367Y-60332842D01*
X27834362Y-60332837D01*
X27806396Y-60309701D01*
X27797618Y-60301713D01*
X27103652Y-59607747D01*
X27096112Y-59599461D01*
X27092000Y-59592982D01*
X27042348Y-59546356D01*
X27039507Y-59543602D01*
X27019770Y-59523865D01*
X27016573Y-59521385D01*
X27007551Y-59513680D01*
X27000919Y-59507452D01*
X26975321Y-59483414D01*
X26968375Y-59479595D01*
X26968372Y-59479593D01*
X26957566Y-59473652D01*
X26941047Y-59462801D01*
X26940583Y-59462441D01*
X26925041Y-59450386D01*
X26917772Y-59447241D01*
X26917768Y-59447238D01*
X26884463Y-59432826D01*
X26873813Y-59427609D01*
X26835060Y-59406305D01*
X26815437Y-59401267D01*
X26796734Y-59394863D01*
X26785420Y-59389967D01*
X26785419Y-59389967D01*
X26778145Y-59386819D01*
X26770322Y-59385580D01*
X26770312Y-59385577D01*
X26734476Y-59379901D01*
X26722856Y-59377495D01*
X26687711Y-59368472D01*
X26687710Y-59368472D01*
X26680030Y-59366500D01*
X26659776Y-59366500D01*
X26640065Y-59364949D01*
X26631946Y-59363663D01*
X28616500Y-59363663D01*
X28618501Y-59383365D01*
X28624300Y-59440448D01*
X28631235Y-59508727D01*
X28641235Y-59540638D01*
X28687556Y-59688451D01*
X28687558Y-59688456D01*
X28689465Y-59694541D01*
X28692558Y-59700120D01*
X28747923Y-59800000D01*
X28783870Y-59864850D01*
X28788019Y-59869691D01*
X28788022Y-59869695D01*
X28894396Y-59993803D01*
X28910591Y-60012698D01*
X28915633Y-60016609D01*
X28915634Y-60016610D01*
X28935315Y-60031876D01*
X29064453Y-60132046D01*
X29070176Y-60134862D01*
X29070179Y-60134864D01*
X29206880Y-60202129D01*
X29239171Y-60218018D01*
X29245349Y-60219627D01*
X29245351Y-60219628D01*
X29421425Y-60265492D01*
X29421428Y-60265492D01*
X29427607Y-60267102D01*
X29511597Y-60271504D01*
X29615683Y-60276959D01*
X29615687Y-60276959D01*
X29622064Y-60277293D01*
X29777413Y-60253799D01*
X29808285Y-60249130D01*
X29808286Y-60249130D01*
X29814599Y-60248175D01*
X29820585Y-60245972D01*
X29820591Y-60245971D01*
X29991360Y-60183140D01*
X29991365Y-60183138D01*
X29997346Y-60180937D01*
X30082513Y-60128131D01*
X30157418Y-60081688D01*
X30157419Y-60081687D01*
X30162840Y-60078326D01*
X30200675Y-60042548D01*
X30299685Y-59948919D01*
X30304322Y-59944534D01*
X30336385Y-59898744D01*
X30374970Y-59843638D01*
X30416011Y-59785025D01*
X30493345Y-59606316D01*
X30496131Y-59592982D01*
X30532176Y-59420443D01*
X30532177Y-59420438D01*
X30533165Y-59415707D01*
X30533500Y-59409315D01*
X30533500Y-58466337D01*
X30518765Y-58321273D01*
X30497870Y-58254595D01*
X30462444Y-58141549D01*
X30462442Y-58141544D01*
X30460535Y-58135459D01*
X30398043Y-58022721D01*
X30369223Y-57970729D01*
X30369221Y-57970726D01*
X30366130Y-57965150D01*
X30361981Y-57960309D01*
X30361978Y-57960305D01*
X30243560Y-57822145D01*
X30239409Y-57817302D01*
X30085547Y-57697954D01*
X30079824Y-57695138D01*
X30079821Y-57695136D01*
X29916556Y-57614800D01*
X29910829Y-57611982D01*
X29904651Y-57610373D01*
X29904649Y-57610372D01*
X29728575Y-57564508D01*
X29728572Y-57564508D01*
X29722393Y-57562898D01*
X29638403Y-57558496D01*
X29534317Y-57553041D01*
X29534313Y-57553041D01*
X29527936Y-57552707D01*
X29372587Y-57576201D01*
X29341715Y-57580870D01*
X29341714Y-57580870D01*
X29335401Y-57581825D01*
X29329415Y-57584028D01*
X29329409Y-57584029D01*
X29158640Y-57646860D01*
X29158635Y-57646862D01*
X29152654Y-57649063D01*
X28987160Y-57751674D01*
X28982527Y-57756055D01*
X28982526Y-57756056D01*
X28908000Y-57826531D01*
X28845678Y-57885466D01*
X28733989Y-58044975D01*
X28656655Y-58223684D01*
X28655350Y-58229931D01*
X28655349Y-58229934D01*
X28633632Y-58333891D01*
X28616835Y-58414293D01*
X28616500Y-58420685D01*
X28616500Y-59363663D01*
X26631946Y-59363663D01*
X26627886Y-59363020D01*
X26620057Y-59361780D01*
X26590786Y-59364547D01*
X26576039Y-59365941D01*
X26564181Y-59366500D01*
X24078767Y-59366500D01*
X24067584Y-59365973D01*
X24060091Y-59364298D01*
X24052165Y-59364547D01*
X24052164Y-59364547D01*
X23992001Y-59366438D01*
X23988043Y-59366500D01*
X23960144Y-59366500D01*
X23956154Y-59367004D01*
X23944320Y-59367936D01*
X23900111Y-59369326D01*
X23892497Y-59371538D01*
X23892492Y-59371539D01*
X23880659Y-59374977D01*
X23861296Y-59378988D01*
X23841203Y-59381526D01*
X23833836Y-59384443D01*
X23833831Y-59384444D01*
X23800092Y-59397802D01*
X23788865Y-59401646D01*
X23746407Y-59413982D01*
X23739581Y-59418019D01*
X23728972Y-59424293D01*
X23711224Y-59432988D01*
X23692383Y-59440448D01*
X23685967Y-59445110D01*
X23685966Y-59445110D01*
X23656613Y-59466436D01*
X23646693Y-59472952D01*
X23615465Y-59491420D01*
X23615462Y-59491422D01*
X23608638Y-59495458D01*
X23594317Y-59509779D01*
X23579284Y-59522619D01*
X23562893Y-59534528D01*
X23557842Y-59540633D01*
X23557837Y-59540638D01*
X23534701Y-59568604D01*
X23526713Y-59577382D01*
X22732747Y-60371348D01*
X22724461Y-60378888D01*
X22717982Y-60383000D01*
X22712557Y-60388777D01*
X22671357Y-60432651D01*
X22668602Y-60435493D01*
X22648865Y-60455230D01*
X22646385Y-60458427D01*
X22638682Y-60467447D01*
X22608414Y-60499679D01*
X22604595Y-60506625D01*
X22604593Y-60506628D01*
X22598652Y-60517434D01*
X22587801Y-60533953D01*
X22575386Y-60549959D01*
X22572241Y-60557228D01*
X22572238Y-60557232D01*
X22557826Y-60590537D01*
X22552609Y-60601187D01*
X22531305Y-60639940D01*
X22529334Y-60647615D01*
X22529334Y-60647616D01*
X22526267Y-60659562D01*
X22519863Y-60678266D01*
X22517606Y-60683483D01*
X22511819Y-60696855D01*
X22510580Y-60704678D01*
X22510577Y-60704688D01*
X22504901Y-60740524D01*
X22502495Y-60752144D01*
X22495777Y-60778312D01*
X22491500Y-60794970D01*
X22491500Y-60815224D01*
X22489949Y-60834934D01*
X22486780Y-60854943D01*
X22490701Y-60896417D01*
X22490941Y-60898961D01*
X22491500Y-60910819D01*
X22491500Y-60940528D01*
X22471498Y-61008649D01*
X22417842Y-61055142D01*
X22365232Y-61063748D01*
X22365232Y-61066500D01*
X22184768Y-61066500D01*
X22178315Y-61067872D01*
X22178311Y-61067872D01*
X22114461Y-61081444D01*
X22008248Y-61104020D01*
X22002215Y-61106706D01*
X22002209Y-61106708D01*
X21927832Y-61139823D01*
X21857465Y-61149258D01*
X21793168Y-61119152D01*
X21766381Y-61085804D01*
X21719223Y-61000729D01*
X21719221Y-61000726D01*
X21716130Y-60995150D01*
X21711981Y-60990309D01*
X21711978Y-60990305D01*
X21593560Y-60852145D01*
X21589409Y-60847302D01*
X21583736Y-60842901D01*
X21440594Y-60731869D01*
X21435547Y-60727954D01*
X21429824Y-60725138D01*
X21429821Y-60725136D01*
X21266556Y-60644800D01*
X21260829Y-60641982D01*
X21254651Y-60640373D01*
X21254649Y-60640372D01*
X21078575Y-60594508D01*
X21078572Y-60594508D01*
X21072393Y-60592898D01*
X20987138Y-60588430D01*
X20884317Y-60583041D01*
X20884313Y-60583041D01*
X20877936Y-60582707D01*
X20722587Y-60606201D01*
X20691715Y-60610870D01*
X20691714Y-60610870D01*
X20685401Y-60611825D01*
X20679415Y-60614028D01*
X20679409Y-60614029D01*
X20508640Y-60676860D01*
X20508635Y-60676862D01*
X20502654Y-60679063D01*
X20450397Y-60711464D01*
X20381961Y-60730362D01*
X20314173Y-60709260D01*
X20268555Y-60654859D01*
X20258000Y-60604378D01*
X20258000Y-60257490D01*
X20278002Y-60189369D01*
X20331658Y-60142876D01*
X20401932Y-60132772D01*
X20439630Y-60144435D01*
X20556880Y-60202129D01*
X20589171Y-60218018D01*
X20595349Y-60219627D01*
X20595351Y-60219628D01*
X20771425Y-60265492D01*
X20771428Y-60265492D01*
X20777607Y-60267102D01*
X20861597Y-60271504D01*
X20965683Y-60276959D01*
X20965687Y-60276959D01*
X20972064Y-60277293D01*
X21127413Y-60253799D01*
X21158285Y-60249130D01*
X21158286Y-60249130D01*
X21164599Y-60248175D01*
X21170585Y-60245972D01*
X21170591Y-60245971D01*
X21341360Y-60183140D01*
X21341365Y-60183138D01*
X21347346Y-60180937D01*
X21432513Y-60128131D01*
X21507418Y-60081688D01*
X21507419Y-60081687D01*
X21512840Y-60078326D01*
X21550675Y-60042548D01*
X21649685Y-59948919D01*
X21654322Y-59944534D01*
X21686385Y-59898744D01*
X21724970Y-59843638D01*
X21766011Y-59785025D01*
X21843345Y-59606316D01*
X21846131Y-59592982D01*
X21882176Y-59420443D01*
X21882177Y-59420438D01*
X21883165Y-59415707D01*
X21883500Y-59409315D01*
X21883500Y-58466337D01*
X21868765Y-58321273D01*
X21847870Y-58254595D01*
X21812444Y-58141549D01*
X21812442Y-58141544D01*
X21810535Y-58135459D01*
X21748043Y-58022721D01*
X21719223Y-57970729D01*
X21719221Y-57970726D01*
X21716130Y-57965150D01*
X21711981Y-57960309D01*
X21711978Y-57960305D01*
X21593560Y-57822145D01*
X21589409Y-57817302D01*
X21435547Y-57697954D01*
X21429824Y-57695138D01*
X21429821Y-57695136D01*
X21266556Y-57614800D01*
X21260829Y-57611982D01*
X21254651Y-57610373D01*
X21254649Y-57610372D01*
X21078575Y-57564508D01*
X21078572Y-57564508D01*
X21072393Y-57562898D01*
X20988403Y-57558496D01*
X20884317Y-57553041D01*
X20884313Y-57553041D01*
X20877936Y-57552707D01*
X20722587Y-57576201D01*
X20691715Y-57580870D01*
X20691714Y-57580870D01*
X20685401Y-57581825D01*
X20679415Y-57584028D01*
X20679409Y-57584029D01*
X20508640Y-57646860D01*
X20508635Y-57646862D01*
X20502654Y-57649063D01*
X20450397Y-57681464D01*
X20381961Y-57700362D01*
X20314173Y-57679260D01*
X20268555Y-57624859D01*
X20258000Y-57574378D01*
X20258000Y-54384000D01*
X20278002Y-54315879D01*
X20331658Y-54269386D01*
X20384000Y-54258000D01*
X33149579Y-54258000D01*
X33217700Y-54278002D01*
G37*
%TD.AperFunction*%
%TD*%
M02*
