%TF.GenerationSoftware,KiCad,Pcbnew,(6.0.2-0)*%
%TF.CreationDate,2023-10-19T17:34:18-05:00*%
%TF.ProjectId,airsticks_pcb,61697273-7469-4636-9b73-5f7063622e6b,rev?*%
%TF.SameCoordinates,Original*%
%TF.FileFunction,Legend,Top*%
%TF.FilePolarity,Positive*%
%FSLAX46Y46*%
G04 Gerber Fmt 4.6, Leading zero omitted, Abs format (unit mm)*
G04 Created by KiCad (PCBNEW (6.0.2-0)) date 2023-10-19 17:34:18*
%MOMM*%
%LPD*%
G01*
G04 APERTURE LIST*
%ADD10C,0.150000*%
%ADD11C,0.120000*%
%ADD12C,0.152400*%
G04 APERTURE END LIST*
D10*
%TO.C,J5*%
X52166666Y-52552380D02*
X52166666Y-53266666D01*
X52119047Y-53409523D01*
X52023809Y-53504761D01*
X51880952Y-53552380D01*
X51785714Y-53552380D01*
X53119047Y-52552380D02*
X52642857Y-52552380D01*
X52595238Y-53028571D01*
X52642857Y-52980952D01*
X52738095Y-52933333D01*
X52976190Y-52933333D01*
X53071428Y-52980952D01*
X53119047Y-53028571D01*
X53166666Y-53123809D01*
X53166666Y-53361904D01*
X53119047Y-53457142D01*
X53071428Y-53504761D01*
X52976190Y-53552380D01*
X52738095Y-53552380D01*
X52642857Y-53504761D01*
X52595238Y-53457142D01*
%TO.C,xlr_right1*%
X63902380Y-62978571D02*
X63235714Y-62454761D01*
X63235714Y-62978571D02*
X63902380Y-62454761D01*
X63902380Y-61930952D02*
X63854761Y-62026190D01*
X63759523Y-62073809D01*
X62902380Y-62073809D01*
X63902380Y-61550000D02*
X63235714Y-61550000D01*
X63426190Y-61550000D02*
X63330952Y-61502380D01*
X63283333Y-61454761D01*
X63235714Y-61359523D01*
X63235714Y-61264285D01*
X63997619Y-61169047D02*
X63997619Y-60407142D01*
X63902380Y-60169047D02*
X63235714Y-60169047D01*
X63426190Y-60169047D02*
X63330952Y-60121428D01*
X63283333Y-60073809D01*
X63235714Y-59978571D01*
X63235714Y-59883333D01*
X63902380Y-59550000D02*
X63235714Y-59550000D01*
X62902380Y-59550000D02*
X62950000Y-59597619D01*
X62997619Y-59550000D01*
X62950000Y-59502380D01*
X62902380Y-59550000D01*
X62997619Y-59550000D01*
X63235714Y-58645238D02*
X64045238Y-58645238D01*
X64140476Y-58692857D01*
X64188095Y-58740476D01*
X64235714Y-58835714D01*
X64235714Y-58978571D01*
X64188095Y-59073809D01*
X63854761Y-58645238D02*
X63902380Y-58740476D01*
X63902380Y-58930952D01*
X63854761Y-59026190D01*
X63807142Y-59073809D01*
X63711904Y-59121428D01*
X63426190Y-59121428D01*
X63330952Y-59073809D01*
X63283333Y-59026190D01*
X63235714Y-58930952D01*
X63235714Y-58740476D01*
X63283333Y-58645238D01*
X63902380Y-58169047D02*
X62902380Y-58169047D01*
X63902380Y-57740476D02*
X63378571Y-57740476D01*
X63283333Y-57788095D01*
X63235714Y-57883333D01*
X63235714Y-58026190D01*
X63283333Y-58121428D01*
X63330952Y-58169047D01*
X63235714Y-57407142D02*
X63235714Y-57026190D01*
X62902380Y-57264285D02*
X63759523Y-57264285D01*
X63854761Y-57216666D01*
X63902380Y-57121428D01*
X63902380Y-57026190D01*
X63902380Y-56169047D02*
X63902380Y-56740476D01*
X63902380Y-56454761D02*
X62902380Y-56454761D01*
X63045238Y-56550000D01*
X63140476Y-56645238D01*
X63188095Y-56740476D01*
%TO.C,*%
%TO.C,C1*%
X44433333Y-62837142D02*
X44385714Y-62884761D01*
X44242857Y-62932380D01*
X44147619Y-62932380D01*
X44004761Y-62884761D01*
X43909523Y-62789523D01*
X43861904Y-62694285D01*
X43814285Y-62503809D01*
X43814285Y-62360952D01*
X43861904Y-62170476D01*
X43909523Y-62075238D01*
X44004761Y-61980000D01*
X44147619Y-61932380D01*
X44242857Y-61932380D01*
X44385714Y-61980000D01*
X44433333Y-62027619D01*
X45385714Y-62932380D02*
X44814285Y-62932380D01*
X45100000Y-62932380D02*
X45100000Y-61932380D01*
X45004761Y-62075238D01*
X44909523Y-62170476D01*
X44814285Y-62218095D01*
%TO.C,J1*%
X17641666Y-66202380D02*
X17641666Y-66916666D01*
X17594047Y-67059523D01*
X17498809Y-67154761D01*
X17355952Y-67202380D01*
X17260714Y-67202380D01*
X18641666Y-67202380D02*
X18070238Y-67202380D01*
X18355952Y-67202380D02*
X18355952Y-66202380D01*
X18260714Y-66345238D01*
X18165476Y-66440476D01*
X18070238Y-66488095D01*
%TO.C,*%
%TO.C,C3*%
X51107142Y-56066666D02*
X51154761Y-56114285D01*
X51202380Y-56257142D01*
X51202380Y-56352380D01*
X51154761Y-56495238D01*
X51059523Y-56590476D01*
X50964285Y-56638095D01*
X50773809Y-56685714D01*
X50630952Y-56685714D01*
X50440476Y-56638095D01*
X50345238Y-56590476D01*
X50250000Y-56495238D01*
X50202380Y-56352380D01*
X50202380Y-56257142D01*
X50250000Y-56114285D01*
X50297619Y-56066666D01*
X50202380Y-55733333D02*
X50202380Y-55114285D01*
X50583333Y-55447619D01*
X50583333Y-55304761D01*
X50630952Y-55209523D01*
X50678571Y-55161904D01*
X50773809Y-55114285D01*
X51011904Y-55114285D01*
X51107142Y-55161904D01*
X51154761Y-55209523D01*
X51202380Y-55304761D01*
X51202380Y-55590476D01*
X51154761Y-55685714D01*
X51107142Y-55733333D01*
%TO.C,J3*%
X18041666Y-72102380D02*
X18041666Y-72816666D01*
X17994047Y-72959523D01*
X17898809Y-73054761D01*
X17755952Y-73102380D01*
X17660714Y-73102380D01*
X18422619Y-72102380D02*
X19041666Y-72102380D01*
X18708333Y-72483333D01*
X18851190Y-72483333D01*
X18946428Y-72530952D01*
X18994047Y-72578571D01*
X19041666Y-72673809D01*
X19041666Y-72911904D01*
X18994047Y-73007142D01*
X18946428Y-73054761D01*
X18851190Y-73102380D01*
X18565476Y-73102380D01*
X18470238Y-73054761D01*
X18422619Y-73007142D01*
%TO.C,*%
%TO.C,U5*%
X34177380Y-51861904D02*
X34986904Y-51861904D01*
X35082142Y-51814285D01*
X35129761Y-51766666D01*
X35177380Y-51671428D01*
X35177380Y-51480952D01*
X35129761Y-51385714D01*
X35082142Y-51338095D01*
X34986904Y-51290476D01*
X34177380Y-51290476D01*
X34177380Y-50338095D02*
X34177380Y-50814285D01*
X34653571Y-50861904D01*
X34605952Y-50814285D01*
X34558333Y-50719047D01*
X34558333Y-50480952D01*
X34605952Y-50385714D01*
X34653571Y-50338095D01*
X34748809Y-50290476D01*
X34986904Y-50290476D01*
X35082142Y-50338095D01*
X35129761Y-50385714D01*
X35177380Y-50480952D01*
X35177380Y-50719047D01*
X35129761Y-50814285D01*
X35082142Y-50861904D01*
%TO.C,*%
%TO.C,xlr_left1*%
X63902380Y-73702380D02*
X63235714Y-73178571D01*
X63235714Y-73702380D02*
X63902380Y-73178571D01*
X63902380Y-72654761D02*
X63854761Y-72750000D01*
X63759523Y-72797619D01*
X62902380Y-72797619D01*
X63902380Y-72273809D02*
X63235714Y-72273809D01*
X63426190Y-72273809D02*
X63330952Y-72226190D01*
X63283333Y-72178571D01*
X63235714Y-72083333D01*
X63235714Y-71988095D01*
X63997619Y-71892857D02*
X63997619Y-71130952D01*
X63902380Y-70750000D02*
X63854761Y-70845238D01*
X63759523Y-70892857D01*
X62902380Y-70892857D01*
X63854761Y-69988095D02*
X63902380Y-70083333D01*
X63902380Y-70273809D01*
X63854761Y-70369047D01*
X63759523Y-70416666D01*
X63378571Y-70416666D01*
X63283333Y-70369047D01*
X63235714Y-70273809D01*
X63235714Y-70083333D01*
X63283333Y-69988095D01*
X63378571Y-69940476D01*
X63473809Y-69940476D01*
X63569047Y-70416666D01*
X63235714Y-69654761D02*
X63235714Y-69273809D01*
X63902380Y-69511904D02*
X63045238Y-69511904D01*
X62950000Y-69464285D01*
X62902380Y-69369047D01*
X62902380Y-69273809D01*
X63235714Y-69083333D02*
X63235714Y-68702380D01*
X62902380Y-68940476D02*
X63759523Y-68940476D01*
X63854761Y-68892857D01*
X63902380Y-68797619D01*
X63902380Y-68702380D01*
X63902380Y-67845238D02*
X63902380Y-68416666D01*
X63902380Y-68130952D02*
X62902380Y-68130952D01*
X63045238Y-68226190D01*
X63140476Y-68321428D01*
X63188095Y-68416666D01*
%TO.C,*%
%TO.C,R1*%
X46702380Y-63666666D02*
X46226190Y-64000000D01*
X46702380Y-64238095D02*
X45702380Y-64238095D01*
X45702380Y-63857142D01*
X45750000Y-63761904D01*
X45797619Y-63714285D01*
X45892857Y-63666666D01*
X46035714Y-63666666D01*
X46130952Y-63714285D01*
X46178571Y-63761904D01*
X46226190Y-63857142D01*
X46226190Y-64238095D01*
X46702380Y-62714285D02*
X46702380Y-63285714D01*
X46702380Y-63000000D02*
X45702380Y-63000000D01*
X45845238Y-63095238D01*
X45940476Y-63190476D01*
X45988095Y-63285714D01*
%TO.C,*%
%TO.C,C4*%
X34008333Y-66107142D02*
X33960714Y-66154761D01*
X33817857Y-66202380D01*
X33722619Y-66202380D01*
X33579761Y-66154761D01*
X33484523Y-66059523D01*
X33436904Y-65964285D01*
X33389285Y-65773809D01*
X33389285Y-65630952D01*
X33436904Y-65440476D01*
X33484523Y-65345238D01*
X33579761Y-65250000D01*
X33722619Y-65202380D01*
X33817857Y-65202380D01*
X33960714Y-65250000D01*
X34008333Y-65297619D01*
X34865476Y-65535714D02*
X34865476Y-66202380D01*
X34627380Y-65154761D02*
X34389285Y-65869047D01*
X35008333Y-65869047D01*
%TO.C,U4*%
X41838095Y-52652380D02*
X41838095Y-53461904D01*
X41885714Y-53557142D01*
X41933333Y-53604761D01*
X42028571Y-53652380D01*
X42219047Y-53652380D01*
X42314285Y-53604761D01*
X42361904Y-53557142D01*
X42409523Y-53461904D01*
X42409523Y-52652380D01*
X43314285Y-52985714D02*
X43314285Y-53652380D01*
X43076190Y-52604761D02*
X42838095Y-53319047D01*
X43457142Y-53319047D01*
%TO.C,*%
%TO.C,J4*%
X58341666Y-79072380D02*
X58341666Y-79786666D01*
X58294047Y-79929523D01*
X58198809Y-80024761D01*
X58055952Y-80072380D01*
X57960714Y-80072380D01*
X59246428Y-79405714D02*
X59246428Y-80072380D01*
X59008333Y-79024761D02*
X58770238Y-79739047D01*
X59389285Y-79739047D01*
%TO.C,REF\u002A\u002A*%
X45816666Y-72602380D02*
X45483333Y-72126190D01*
X45245238Y-72602380D02*
X45245238Y-71602380D01*
X45626190Y-71602380D01*
X45721428Y-71650000D01*
X45769047Y-71697619D01*
X45816666Y-71792857D01*
X45816666Y-71935714D01*
X45769047Y-72030952D01*
X45721428Y-72078571D01*
X45626190Y-72126190D01*
X45245238Y-72126190D01*
X46245238Y-72078571D02*
X46578571Y-72078571D01*
X46721428Y-72602380D02*
X46245238Y-72602380D01*
X46245238Y-71602380D01*
X46721428Y-71602380D01*
X47483333Y-72078571D02*
X47150000Y-72078571D01*
X47150000Y-72602380D02*
X47150000Y-71602380D01*
X47626190Y-71602380D01*
X48150000Y-71602380D02*
X48150000Y-71840476D01*
X47911904Y-71745238D02*
X48150000Y-71840476D01*
X48388095Y-71745238D01*
X48007142Y-72030952D02*
X48150000Y-71840476D01*
X48292857Y-72030952D01*
X48911904Y-71602380D02*
X48911904Y-71840476D01*
X48673809Y-71745238D02*
X48911904Y-71840476D01*
X49150000Y-71745238D01*
X48769047Y-72030952D02*
X48911904Y-71840476D01*
X49054761Y-72030952D01*
%TO.C,*%
%TO.C,J4*%
X64391666Y-78002380D02*
X64391666Y-78716666D01*
X64344047Y-78859523D01*
X64248809Y-78954761D01*
X64105952Y-79002380D01*
X64010714Y-79002380D01*
X65296428Y-78335714D02*
X65296428Y-79002380D01*
X65058333Y-77954761D02*
X64820238Y-78669047D01*
X65439285Y-78669047D01*
%TO.C,*%
%TO.C,J4*%
X62066666Y-79727380D02*
X62066666Y-80441666D01*
X62019047Y-80584523D01*
X61923809Y-80679761D01*
X61780952Y-80727380D01*
X61685714Y-80727380D01*
X62971428Y-80060714D02*
X62971428Y-80727380D01*
X62733333Y-79679761D02*
X62495238Y-80394047D01*
X63114285Y-80394047D01*
%TO.C,*%
%TO.C,J2*%
X16927380Y-69933333D02*
X17641666Y-69933333D01*
X17784523Y-69980952D01*
X17879761Y-70076190D01*
X17927380Y-70219047D01*
X17927380Y-70314285D01*
X17022619Y-69504761D02*
X16975000Y-69457142D01*
X16927380Y-69361904D01*
X16927380Y-69123809D01*
X16975000Y-69028571D01*
X17022619Y-68980952D01*
X17117857Y-68933333D01*
X17213095Y-68933333D01*
X17355952Y-68980952D01*
X17927380Y-69552380D01*
X17927380Y-68933333D01*
%TO.C,*%
%TO.C,U1*%
X39438095Y-67652380D02*
X39438095Y-68461904D01*
X39485714Y-68557142D01*
X39533333Y-68604761D01*
X39628571Y-68652380D01*
X39819047Y-68652380D01*
X39914285Y-68604761D01*
X39961904Y-68557142D01*
X40009523Y-68461904D01*
X40009523Y-67652380D01*
X41009523Y-68652380D02*
X40438095Y-68652380D01*
X40723809Y-68652380D02*
X40723809Y-67652380D01*
X40628571Y-67795238D01*
X40533333Y-67890476D01*
X40438095Y-67938095D01*
X34713600Y-64071380D02*
X34713600Y-64309476D01*
X34475504Y-64214238D02*
X34713600Y-64309476D01*
X34951695Y-64214238D01*
X34570742Y-64499952D02*
X34713600Y-64309476D01*
X34856457Y-64499952D01*
X34713600Y-64071380D02*
X34713600Y-64309476D01*
X34475504Y-64214238D02*
X34713600Y-64309476D01*
X34951695Y-64214238D01*
X34570742Y-64499952D02*
X34713600Y-64309476D01*
X34856457Y-64499952D01*
%TO.C,*%
D11*
%TO.C,J5*%
X55600000Y-62700000D02*
X55600000Y-71600000D01*
X49400000Y-71600000D02*
X49400000Y-70400000D01*
X49400000Y-67200000D02*
X49400000Y-60700000D01*
X49900000Y-54400000D02*
X55100000Y-54400000D01*
X49400000Y-56900000D02*
X49900000Y-56900000D01*
X55100000Y-56900000D02*
X55600000Y-56900000D01*
X55600000Y-56900000D02*
X55600000Y-60100000D01*
X49900000Y-56900000D02*
X49900000Y-54400000D01*
X49400000Y-58100000D02*
X49400000Y-56900000D01*
X55100000Y-54400000D02*
X55100000Y-56900000D01*
X49400000Y-60700000D02*
X47400000Y-60700000D01*
X49400000Y-58100000D02*
X47400000Y-58100000D01*
X55600000Y-71600000D02*
X49400000Y-71600000D01*
%TO.C,xlr_right1*%
X67010000Y-58590000D02*
X67010000Y-57940000D01*
X67010000Y-61160000D02*
X66860000Y-61160000D01*
X67010000Y-60510000D02*
X67010000Y-61160000D01*
X64290000Y-58590000D02*
X64290000Y-57940000D01*
X64290000Y-57940000D02*
X64440000Y-57940000D01*
X67010000Y-57940000D02*
X66860000Y-57940000D01*
X64290000Y-60510000D02*
X64290000Y-61160000D01*
%TO.C,C1*%
X44861252Y-60065000D02*
X44338748Y-60065000D01*
X44861252Y-61535000D02*
X44338748Y-61535000D01*
%TO.C,J1*%
X29845000Y-54545000D02*
X20655000Y-54545000D01*
X20655000Y-57275000D02*
X20655000Y-54545000D01*
X29725000Y-63955000D02*
X20775000Y-63955000D01*
X29845000Y-60875000D02*
X29845000Y-59975000D01*
X29845000Y-57275000D02*
X29845000Y-54545000D01*
X20655000Y-60875000D02*
X20655000Y-59975000D01*
%TO.C,C3*%
X48735000Y-55738748D02*
X48735000Y-56261252D01*
X47265000Y-55738748D02*
X47265000Y-56261252D01*
%TO.C,J3*%
X21850000Y-74930000D02*
X20520000Y-74930000D01*
X23120000Y-72270000D02*
X35880000Y-72270000D01*
X23120000Y-74930000D02*
X35880000Y-74930000D01*
X35880000Y-74930000D02*
X35880000Y-72270000D01*
X23120000Y-74930000D02*
X23120000Y-72270000D01*
X20520000Y-74930000D02*
X20520000Y-73600000D01*
%TO.C,U5*%
X37910000Y-60350000D02*
X37910000Y-56590000D01*
X31090000Y-56590000D02*
X32350000Y-56590000D01*
X31090000Y-62600000D02*
X31090000Y-56590000D01*
X37910000Y-56590000D02*
X36650000Y-56590000D01*
%TO.C,xlr_left1*%
X67010000Y-69790000D02*
X67010000Y-69140000D01*
X67010000Y-69140000D02*
X66860000Y-69140000D01*
X67010000Y-72360000D02*
X66860000Y-72360000D01*
X64290000Y-69140000D02*
X64440000Y-69140000D01*
X64290000Y-69790000D02*
X64290000Y-69140000D01*
X67010000Y-71710000D02*
X67010000Y-72360000D01*
X64290000Y-71710000D02*
X64290000Y-72360000D01*
%TO.C,R1*%
X48735000Y-63572936D02*
X48735000Y-64027064D01*
X47265000Y-63572936D02*
X47265000Y-64027064D01*
%TO.C,C4*%
X32861252Y-64935000D02*
X32338748Y-64935000D01*
X32861252Y-63465000D02*
X32338748Y-63465000D01*
%TO.C,U4*%
X42600000Y-54040000D02*
X44550000Y-54040000D01*
X42600000Y-59160000D02*
X44550000Y-59160000D01*
X42600000Y-59160000D02*
X40650000Y-59160000D01*
X42600000Y-54040000D02*
X39150000Y-54040000D01*
%TO.C,J4*%
X58955000Y-63440000D02*
X56295000Y-63440000D01*
X58955000Y-68580000D02*
X56295000Y-68580000D01*
X58955000Y-68580000D02*
X58955000Y-63440000D01*
X58955000Y-71180000D02*
X57625000Y-71180000D01*
X58955000Y-69850000D02*
X58955000Y-71180000D01*
X56295000Y-68580000D02*
X56295000Y-63440000D01*
%TO.C,REF\u002A\u002A*%
X45750000Y-72950000D02*
X48550000Y-72950000D01*
X48550000Y-72950000D02*
X48550000Y-74950000D01*
X45750000Y-74950000D02*
X45750000Y-72950000D01*
X48550000Y-74950000D02*
X45750000Y-74950000D01*
%TO.C,J4*%
X63180000Y-71950000D02*
X63180000Y-73280000D01*
X63180000Y-70680000D02*
X60520000Y-70680000D01*
X60520000Y-70680000D02*
X60520000Y-65540000D01*
X63180000Y-73280000D02*
X61850000Y-73280000D01*
X63180000Y-70680000D02*
X63180000Y-65540000D01*
X63180000Y-65540000D02*
X60520000Y-65540000D01*
X63055000Y-54390000D02*
X60395000Y-54390000D01*
X63055000Y-60800000D02*
X63055000Y-62130000D01*
X63055000Y-59530000D02*
X63055000Y-54390000D01*
X63055000Y-62130000D02*
X61725000Y-62130000D01*
X63055000Y-59530000D02*
X60395000Y-59530000D01*
X60395000Y-59530000D02*
X60395000Y-54390000D01*
%TO.C,J2*%
X20595000Y-71105000D02*
X20595000Y-69775000D01*
X23195000Y-71105000D02*
X23195000Y-68505000D01*
X20595000Y-68505000D02*
X20595000Y-65905000D01*
X20595000Y-65905000D02*
X33415000Y-65905000D01*
X33415000Y-71105000D02*
X33415000Y-65905000D01*
X23195000Y-68505000D02*
X20595000Y-68505000D01*
X21925000Y-71105000D02*
X20595000Y-71105000D01*
X23195000Y-71105000D02*
X33415000Y-71105000D01*
D12*
%TO.C,U1*%
X36567800Y-71832200D02*
X36813261Y-71832200D01*
X43586739Y-71832200D02*
X43832200Y-71832200D01*
X43832200Y-71832200D02*
X43832200Y-71586739D01*
X43832200Y-64567800D02*
X43586739Y-64567800D01*
X43832200Y-64813261D02*
X43832200Y-64567800D01*
X36567800Y-64567800D02*
X36567800Y-64813261D01*
X36813261Y-64567800D02*
X36567800Y-64567800D01*
X36567800Y-71586739D02*
X36567800Y-71832200D01*
G36*
X45559400Y-68790499D02*
G01*
X45305400Y-68790499D01*
X45305400Y-68409499D01*
X45559400Y-68409499D01*
X45559400Y-68790499D01*
G37*
G36*
X38390499Y-73559400D02*
G01*
X38009499Y-73559400D01*
X38009499Y-73305400D01*
X38390499Y-73305400D01*
X38390499Y-73559400D01*
G37*
G36*
X39190500Y-63094600D02*
G01*
X38809500Y-63094600D01*
X38809500Y-62840600D01*
X39190500Y-62840600D01*
X39190500Y-63094600D01*
G37*
%TD*%
M02*
