%TF.GenerationSoftware,KiCad,Pcbnew,(6.0.2-0)*%
%TF.CreationDate,2023-10-19T17:34:19-05:00*%
%TF.ProjectId,airsticks_pcb,61697273-7469-4636-9b73-5f7063622e6b,rev?*%
%TF.SameCoordinates,Original*%
%TF.FileFunction,Legend,Bot*%
%TF.FilePolarity,Positive*%
%FSLAX46Y46*%
G04 Gerber Fmt 4.6, Leading zero omitted, Abs format (unit mm)*
G04 Created by KiCad (PCBNEW (6.0.2-0)) date 2023-10-19 17:34:19*
%MOMM*%
%LPD*%
G01*
G04 APERTURE LIST*
%ADD10C,0.150000*%
%ADD11C,0.120000*%
G04 APERTURE END LIST*
D10*
%TO.C,REF\u002A\u002A*%
X50233333Y-80152380D02*
X50566666Y-79676190D01*
X50804761Y-80152380D02*
X50804761Y-79152380D01*
X50423809Y-79152380D01*
X50328571Y-79200000D01*
X50280952Y-79247619D01*
X50233333Y-79342857D01*
X50233333Y-79485714D01*
X50280952Y-79580952D01*
X50328571Y-79628571D01*
X50423809Y-79676190D01*
X50804761Y-79676190D01*
X49804761Y-79628571D02*
X49471428Y-79628571D01*
X49328571Y-80152380D02*
X49804761Y-80152380D01*
X49804761Y-79152380D01*
X49328571Y-79152380D01*
X48566666Y-79628571D02*
X48900000Y-79628571D01*
X48900000Y-80152380D02*
X48900000Y-79152380D01*
X48423809Y-79152380D01*
X47900000Y-79152380D02*
X47900000Y-79390476D01*
X48138095Y-79295238D02*
X47900000Y-79390476D01*
X47661904Y-79295238D01*
X48042857Y-79580952D02*
X47900000Y-79390476D01*
X47757142Y-79580952D01*
X47138095Y-79152380D02*
X47138095Y-79390476D01*
X47376190Y-79295238D02*
X47138095Y-79390476D01*
X46900000Y-79295238D01*
X47280952Y-79580952D02*
X47138095Y-79390476D01*
X46995238Y-79580952D01*
%TO.C,C6*%
X40116666Y-58452142D02*
X40164285Y-58499761D01*
X40307142Y-58547380D01*
X40402380Y-58547380D01*
X40545238Y-58499761D01*
X40640476Y-58404523D01*
X40688095Y-58309285D01*
X40735714Y-58118809D01*
X40735714Y-57975952D01*
X40688095Y-57785476D01*
X40640476Y-57690238D01*
X40545238Y-57595000D01*
X40402380Y-57547380D01*
X40307142Y-57547380D01*
X40164285Y-57595000D01*
X40116666Y-57642619D01*
X39259523Y-57547380D02*
X39450000Y-57547380D01*
X39545238Y-57595000D01*
X39592857Y-57642619D01*
X39688095Y-57785476D01*
X39735714Y-57975952D01*
X39735714Y-58356904D01*
X39688095Y-58452142D01*
X39640476Y-58499761D01*
X39545238Y-58547380D01*
X39354761Y-58547380D01*
X39259523Y-58499761D01*
X39211904Y-58452142D01*
X39164285Y-58356904D01*
X39164285Y-58118809D01*
X39211904Y-58023571D01*
X39259523Y-57975952D01*
X39354761Y-57928333D01*
X39545238Y-57928333D01*
X39640476Y-57975952D01*
X39688095Y-58023571D01*
X39735714Y-58118809D01*
%TO.C,C5*%
X34766666Y-63837142D02*
X34814285Y-63884761D01*
X34957142Y-63932380D01*
X35052380Y-63932380D01*
X35195238Y-63884761D01*
X35290476Y-63789523D01*
X35338095Y-63694285D01*
X35385714Y-63503809D01*
X35385714Y-63360952D01*
X35338095Y-63170476D01*
X35290476Y-63075238D01*
X35195238Y-62980000D01*
X35052380Y-62932380D01*
X34957142Y-62932380D01*
X34814285Y-62980000D01*
X34766666Y-63027619D01*
X33861904Y-62932380D02*
X34338095Y-62932380D01*
X34385714Y-63408571D01*
X34338095Y-63360952D01*
X34242857Y-63313333D01*
X34004761Y-63313333D01*
X33909523Y-63360952D01*
X33861904Y-63408571D01*
X33814285Y-63503809D01*
X33814285Y-63741904D01*
X33861904Y-63837142D01*
X33909523Y-63884761D01*
X34004761Y-63932380D01*
X34242857Y-63932380D01*
X34338095Y-63884761D01*
X34385714Y-63837142D01*
%TO.C,REF\u002A\u002A*%
X55833333Y-80952380D02*
X56166666Y-80476190D01*
X56404761Y-80952380D02*
X56404761Y-79952380D01*
X56023809Y-79952380D01*
X55928571Y-80000000D01*
X55880952Y-80047619D01*
X55833333Y-80142857D01*
X55833333Y-80285714D01*
X55880952Y-80380952D01*
X55928571Y-80428571D01*
X56023809Y-80476190D01*
X56404761Y-80476190D01*
X55404761Y-80428571D02*
X55071428Y-80428571D01*
X54928571Y-80952380D02*
X55404761Y-80952380D01*
X55404761Y-79952380D01*
X54928571Y-79952380D01*
X54166666Y-80428571D02*
X54500000Y-80428571D01*
X54500000Y-80952380D02*
X54500000Y-79952380D01*
X54023809Y-79952380D01*
X53500000Y-79952380D02*
X53500000Y-80190476D01*
X53738095Y-80095238D02*
X53500000Y-80190476D01*
X53261904Y-80095238D01*
X53642857Y-80380952D02*
X53500000Y-80190476D01*
X53357142Y-80380952D01*
X52738095Y-79952380D02*
X52738095Y-80190476D01*
X52976190Y-80095238D02*
X52738095Y-80190476D01*
X52500000Y-80095238D01*
X52880952Y-80380952D02*
X52738095Y-80190476D01*
X52595238Y-80380952D01*
D11*
X49425000Y-70850000D02*
X46625000Y-70850000D01*
X46625000Y-70850000D02*
X46625000Y-72850000D01*
X49425000Y-72850000D02*
X49425000Y-70850000D01*
X46625000Y-72850000D02*
X49425000Y-72850000D01*
%TO.C,C6*%
X40211252Y-59040000D02*
X39688748Y-59040000D01*
X40211252Y-60510000D02*
X39688748Y-60510000D01*
%TO.C,C5*%
X34338748Y-62535000D02*
X34861252Y-62535000D01*
X34338748Y-61065000D02*
X34861252Y-61065000D01*
%TO.C,REF\u002A\u002A*%
X46625000Y-70325000D02*
X49425000Y-70325000D01*
X49425000Y-68325000D02*
X46625000Y-68325000D01*
X46625000Y-68325000D02*
X46625000Y-70325000D01*
X49425000Y-70325000D02*
X49425000Y-68325000D01*
%TD*%
M02*
