%TF.GenerationSoftware,KiCad,Pcbnew,(6.0.2-0)*%
%TF.CreationDate,2023-10-19T17:34:19-05:00*%
%TF.ProjectId,airsticks_pcb,61697273-7469-4636-9b73-5f7063622e6b,rev?*%
%TF.SameCoordinates,Original*%
%TF.FileFunction,Soldermask,Top*%
%TF.FilePolarity,Negative*%
%FSLAX46Y46*%
G04 Gerber Fmt 4.6, Leading zero omitted, Abs format (unit mm)*
G04 Created by KiCad (PCBNEW (6.0.2-0)) date 2023-10-19 17:34:19*
%MOMM*%
%LPD*%
G01*
G04 APERTURE LIST*
G04 Aperture macros list*
%AMRoundRect*
0 Rectangle with rounded corners*
0 $1 Rounding radius*
0 $2 $3 $4 $5 $6 $7 $8 $9 X,Y pos of 4 corners*
0 Add a 4 corners polygon primitive as box body*
4,1,4,$2,$3,$4,$5,$6,$7,$8,$9,$2,$3,0*
0 Add four circle primitives for the rounded corners*
1,1,$1+$1,$2,$3*
1,1,$1+$1,$4,$5*
1,1,$1+$1,$6,$7*
1,1,$1+$1,$8,$9*
0 Add four rect primitives between the rounded corners*
20,1,$1+$1,$2,$3,$4,$5,0*
20,1,$1+$1,$4,$5,$6,$7,0*
20,1,$1+$1,$6,$7,$8,$9,0*
20,1,$1+$1,$8,$9,$2,$3,0*%
%AMFreePoly0*
4,1,48,0.036020,0.199191,0.037970,0.199714,0.040958,0.198321,0.057086,0.195477,0.069630,0.184951,0.084467,0.178033,0.290533,-0.028033,0.293203,-0.031847,0.294953,-0.032857,0.296081,-0.035957,0.305473,-0.049370,0.306900,-0.065680,0.312500,-0.081066,0.312500,-0.125000,0.310782,-0.134742,0.311361,-0.138024,0.309695,-0.140910,0.307977,-0.150652,0.295451,-0.165579,0.285709,-0.182453,
0.279350,-0.184767,0.275000,-0.189952,0.255809,-0.193336,0.237500,-0.200000,-0.237500,-0.200000,-0.247242,-0.198282,-0.250524,-0.198861,-0.253410,-0.197195,-0.263152,-0.195477,-0.278079,-0.182951,-0.294953,-0.173209,-0.297267,-0.166850,-0.302452,-0.162500,-0.305836,-0.143309,-0.312500,-0.125000,-0.312500,0.125000,-0.310782,0.134742,-0.311361,0.138024,-0.309695,0.140910,-0.307977,0.150652,
-0.295451,0.165579,-0.285709,0.182453,-0.279350,0.184767,-0.275000,0.189952,-0.255809,0.193336,-0.237500,0.200000,0.031434,0.200000,0.036020,0.199191,0.036020,0.199191,$1*%
%AMFreePoly1*
4,1,48,0.247242,0.198282,0.250524,0.198861,0.253410,0.197195,0.263152,0.195477,0.278079,0.182951,0.294953,0.173209,0.297267,0.166850,0.302452,0.162500,0.305836,0.143309,0.312500,0.125000,0.312500,0.081066,0.311691,0.076480,0.312214,0.074529,0.310820,0.071540,0.307977,0.055414,0.297452,0.042871,0.290533,0.028033,0.084467,-0.178033,0.080653,-0.180703,0.079643,-0.182453,
0.076543,-0.183581,0.063130,-0.192973,0.046819,-0.194400,0.031434,-0.200000,-0.237500,-0.200000,-0.247242,-0.198282,-0.250524,-0.198861,-0.253410,-0.197195,-0.263152,-0.195477,-0.278079,-0.182951,-0.294953,-0.173209,-0.297267,-0.166850,-0.302452,-0.162500,-0.305836,-0.143309,-0.312500,-0.125000,-0.312500,0.125000,-0.310782,0.134742,-0.311361,0.138024,-0.309695,0.140910,-0.307977,0.150652,
-0.295451,0.165579,-0.285709,0.182453,-0.279350,0.184767,-0.275000,0.189952,-0.255809,0.193336,-0.237500,0.200000,0.237500,0.200000,0.247242,0.198282,0.247242,0.198282,$1*%
%AMFreePoly2*
4,1,48,0.134742,0.310782,0.138024,0.311361,0.140910,0.309695,0.150652,0.307977,0.165579,0.295451,0.182453,0.285709,0.184767,0.279350,0.189952,0.275000,0.193336,0.255809,0.200000,0.237500,0.200000,-0.237500,0.198282,-0.247242,0.198861,-0.250524,0.197195,-0.253410,0.195477,-0.263152,0.182951,-0.278079,0.173209,-0.294953,0.166850,-0.297267,0.162500,-0.302452,0.143309,-0.305836,
0.125000,-0.312500,-0.125000,-0.312500,-0.134742,-0.310782,-0.138024,-0.311361,-0.140910,-0.309695,-0.150652,-0.307977,-0.165579,-0.295451,-0.182453,-0.285709,-0.184767,-0.279350,-0.189952,-0.275000,-0.193336,-0.255809,-0.200000,-0.237500,-0.200000,0.031434,-0.199191,0.036020,-0.199714,0.037970,-0.198321,0.040958,-0.195477,0.057086,-0.184951,0.069630,-0.178033,0.084467,0.028033,0.290533,
0.031847,0.293203,0.032857,0.294953,0.035957,0.296081,0.049370,0.305473,0.065680,0.306900,0.081066,0.312500,0.125000,0.312500,0.134742,0.310782,0.134742,0.310782,$1*%
%AMFreePoly3*
4,1,48,-0.076480,0.311691,-0.074530,0.312214,-0.071542,0.310821,-0.055414,0.307977,-0.042870,0.297451,-0.028033,0.290533,0.178033,0.084467,0.180703,0.080653,0.182453,0.079643,0.183581,0.076543,0.192973,0.063130,0.194400,0.046820,0.200000,0.031434,0.200000,-0.237500,0.198282,-0.247242,0.198861,-0.250524,0.197195,-0.253410,0.195477,-0.263152,0.182951,-0.278079,0.173209,-0.294953,
0.166850,-0.297267,0.162500,-0.302452,0.143309,-0.305836,0.125000,-0.312500,-0.125000,-0.312500,-0.134742,-0.310782,-0.138024,-0.311361,-0.140910,-0.309695,-0.150652,-0.307977,-0.165579,-0.295451,-0.182453,-0.285709,-0.184767,-0.279350,-0.189952,-0.275000,-0.193336,-0.255809,-0.200000,-0.237500,-0.200000,0.237500,-0.198282,0.247242,-0.198861,0.250524,-0.197195,0.253410,-0.195477,0.263152,
-0.182951,0.278079,-0.173209,0.294953,-0.166850,0.297267,-0.162500,0.302452,-0.143309,0.305836,-0.125000,0.312500,-0.081066,0.312500,-0.076480,0.311691,-0.076480,0.311691,$1*%
%AMFreePoly4*
4,1,48,0.247242,0.198282,0.250524,0.198861,0.253410,0.197195,0.263152,0.195477,0.278079,0.182951,0.294953,0.173209,0.297267,0.166850,0.302452,0.162500,0.305836,0.143309,0.312500,0.125000,0.312500,-0.125000,0.310782,-0.134742,0.311361,-0.138024,0.309695,-0.140910,0.307977,-0.150652,0.295451,-0.165579,0.285709,-0.182453,0.279350,-0.184767,0.275000,-0.189952,0.255809,-0.193336,
0.237500,-0.200000,-0.031434,-0.200000,-0.036020,-0.199191,-0.037971,-0.199714,-0.040960,-0.198320,-0.057086,-0.195477,-0.069629,-0.184952,-0.084467,-0.178033,-0.290533,0.028033,-0.293203,0.031847,-0.294953,0.032857,-0.296081,0.035957,-0.305473,0.049370,-0.306900,0.065681,-0.312500,0.081066,-0.312500,0.125000,-0.310782,0.134742,-0.311361,0.138024,-0.309695,0.140910,-0.307977,0.150652,
-0.295451,0.165579,-0.285709,0.182453,-0.279350,0.184767,-0.275000,0.189952,-0.255809,0.193336,-0.237500,0.200000,0.237500,0.200000,0.247242,0.198282,0.247242,0.198282,$1*%
%AMFreePoly5*
4,1,48,0.247242,0.198282,0.250524,0.198861,0.253410,0.197195,0.263152,0.195477,0.278079,0.182951,0.294953,0.173209,0.297267,0.166850,0.302452,0.162500,0.305836,0.143309,0.312500,0.125000,0.312500,-0.125000,0.310782,-0.134742,0.311361,-0.138024,0.309695,-0.140910,0.307977,-0.150652,0.295451,-0.165579,0.285709,-0.182453,0.279350,-0.184767,0.275000,-0.189952,0.255809,-0.193336,
0.237500,-0.200000,-0.237500,-0.200000,-0.247242,-0.198282,-0.250524,-0.198861,-0.253410,-0.197195,-0.263152,-0.195477,-0.278079,-0.182951,-0.294953,-0.173209,-0.297267,-0.166850,-0.302452,-0.162500,-0.305836,-0.143309,-0.312500,-0.125000,-0.312500,-0.081066,-0.311691,-0.076480,-0.312214,-0.074530,-0.310821,-0.071542,-0.307977,-0.055414,-0.297451,-0.042870,-0.290533,-0.028033,-0.084467,0.178033,
-0.080653,0.180703,-0.079643,0.182453,-0.076543,0.183581,-0.063130,0.192973,-0.046820,0.194400,-0.031434,0.200000,0.237500,0.200000,0.247242,0.198282,0.247242,0.198282,$1*%
%AMFreePoly6*
4,1,48,0.134742,0.310782,0.138024,0.311361,0.140910,0.309695,0.150652,0.307977,0.165579,0.295451,0.182453,0.285709,0.184767,0.279350,0.189952,0.275000,0.193336,0.255809,0.200000,0.237500,0.200000,-0.031434,0.199191,-0.036020,0.199714,-0.037971,0.198320,-0.040960,0.195477,-0.057086,0.184952,-0.069629,0.178033,-0.084467,-0.028033,-0.290533,-0.031847,-0.293203,-0.032857,-0.294953,
-0.035957,-0.296081,-0.049370,-0.305473,-0.065681,-0.306900,-0.081066,-0.312500,-0.125000,-0.312500,-0.134742,-0.310782,-0.138024,-0.311361,-0.140910,-0.309695,-0.150652,-0.307977,-0.165579,-0.295451,-0.182453,-0.285709,-0.184767,-0.279350,-0.189952,-0.275000,-0.193336,-0.255809,-0.200000,-0.237500,-0.200000,0.237500,-0.198282,0.247242,-0.198861,0.250524,-0.197195,0.253410,-0.195477,0.263152,
-0.182951,0.278079,-0.173209,0.294953,-0.166850,0.297267,-0.162500,0.302452,-0.143309,0.305836,-0.125000,0.312500,0.125000,0.312500,0.134742,0.310782,0.134742,0.310782,$1*%
%AMFreePoly7*
4,1,48,0.134742,0.310782,0.138024,0.311361,0.140910,0.309695,0.150652,0.307977,0.165579,0.295451,0.182453,0.285709,0.184767,0.279350,0.189952,0.275000,0.193336,0.255809,0.200000,0.237500,0.200000,-0.237500,0.198282,-0.247242,0.198861,-0.250524,0.197195,-0.253410,0.195477,-0.263152,0.182951,-0.278079,0.173209,-0.294953,0.166850,-0.297267,0.162500,-0.302452,0.143309,-0.305836,
0.125000,-0.312500,0.081066,-0.312500,0.076480,-0.311691,0.074529,-0.312214,0.071540,-0.310820,0.055414,-0.307977,0.042871,-0.297452,0.028033,-0.290533,-0.178033,-0.084467,-0.180703,-0.080653,-0.182453,-0.079643,-0.183581,-0.076543,-0.192973,-0.063130,-0.194400,-0.046819,-0.200000,-0.031434,-0.200000,0.237500,-0.198282,0.247242,-0.198861,0.250524,-0.197195,0.253410,-0.195477,0.263152,
-0.182951,0.278079,-0.173209,0.294953,-0.166850,0.297267,-0.162500,0.302452,-0.143309,0.305836,-0.125000,0.312500,0.125000,0.312500,0.134742,0.310782,0.134742,0.310782,$1*%
%AMFreePoly8*
4,1,6,1.000000,0.000000,0.500000,-0.750000,-0.500000,-0.750000,-0.500000,0.750000,0.500000,0.750000,1.000000,0.000000,1.000000,0.000000,$1*%
%AMFreePoly9*
4,1,6,0.500000,-0.750000,-0.650000,-0.750000,-0.150000,0.000000,-0.650000,0.750000,0.500000,0.750000,0.500000,-0.750000,0.500000,-0.750000,$1*%
G04 Aperture macros list end*
%ADD10C,1.700000*%
%ADD11R,2.800000X2.200000*%
%ADD12R,2.800000X2.800000*%
%ADD13FreePoly0,90.000000*%
%ADD14RoundRect,0.100000X0.100000X-0.212500X0.100000X0.212500X-0.100000X0.212500X-0.100000X-0.212500X0*%
%ADD15FreePoly1,90.000000*%
%ADD16FreePoly2,90.000000*%
%ADD17RoundRect,0.100000X0.212500X-0.100000X0.212500X0.100000X-0.212500X0.100000X-0.212500X-0.100000X0*%
%ADD18FreePoly3,90.000000*%
%ADD19FreePoly4,90.000000*%
%ADD20FreePoly5,90.000000*%
%ADD21FreePoly6,90.000000*%
%ADD22FreePoly7,90.000000*%
%ADD23C,0.500000*%
%ADD24RoundRect,0.250000X0.337500X0.475000X-0.337500X0.475000X-0.337500X-0.475000X0.337500X-0.475000X0*%
%ADD25C,0.700000*%
%ADD26O,0.900000X1.700000*%
%ADD27O,0.900000X2.400000*%
%ADD28RoundRect,0.250000X-0.475000X0.337500X-0.475000X-0.337500X0.475000X-0.337500X0.475000X0.337500X0*%
%ADD29R,1.700000X1.700000*%
%ADD30O,1.700000X1.700000*%
%ADD31R,1.500000X2.000000*%
%ADD32R,3.800000X2.000000*%
%ADD33RoundRect,0.250000X-0.450000X0.350000X-0.450000X-0.350000X0.450000X-0.350000X0.450000X0.350000X0*%
%ADD34RoundRect,0.150000X-0.725000X-0.150000X0.725000X-0.150000X0.725000X0.150000X-0.725000X0.150000X0*%
%ADD35FreePoly8,0.000000*%
%ADD36FreePoly9,0.000000*%
%ADD37R,1.473200X0.508000*%
%ADD38R,0.508000X1.473200*%
G04 APERTURE END LIST*
D10*
%TO.C,J5*%
X52500000Y-60500000D03*
X52500000Y-67500000D03*
D11*
X56200000Y-61400000D03*
X48800000Y-59400000D03*
D12*
X48800000Y-68800000D03*
%TD*%
D13*
%TO.C,xlr_right1*%
X64900000Y-60712500D03*
D14*
X65400000Y-60712500D03*
X65900000Y-60712500D03*
D15*
X66400000Y-60712500D03*
D16*
X66562500Y-60050000D03*
D17*
X66562500Y-59550000D03*
D18*
X66562500Y-59050000D03*
D19*
X66400000Y-58387500D03*
D14*
X65900000Y-58387500D03*
X65400000Y-58387500D03*
D20*
X64900000Y-58387500D03*
D21*
X64737500Y-59050000D03*
D17*
X64737500Y-59550000D03*
D22*
X64737500Y-60050000D03*
%TD*%
D23*
%TO.C,*%
X59650000Y-67250000D03*
%TD*%
D10*
%TO.C,*%
X57625000Y-72375000D03*
%TD*%
D23*
%TO.C,*%
X62650000Y-65000000D03*
%TD*%
%TO.C,*%
X59650000Y-70300000D03*
%TD*%
%TO.C,*%
X59650000Y-71800000D03*
%TD*%
D24*
%TO.C,C1*%
X45637500Y-60800000D03*
X43562500Y-60800000D03*
%TD*%
D25*
%TO.C,J1*%
X28225000Y-63275000D03*
X27375000Y-63275000D03*
X26525000Y-63275000D03*
X25675000Y-63275000D03*
X24825000Y-63275000D03*
X23975000Y-63275000D03*
X23125000Y-63275000D03*
X22275000Y-63275000D03*
X22275000Y-61925000D03*
X23125000Y-61925000D03*
X23975000Y-61925000D03*
X24825000Y-61925000D03*
X25675000Y-61925000D03*
X26525000Y-61925000D03*
X27375000Y-61925000D03*
X28225000Y-61925000D03*
D26*
X20925000Y-58915000D03*
X29575000Y-58915000D03*
D27*
X29575000Y-62295000D03*
X20925000Y-62295000D03*
%TD*%
D23*
%TO.C,*%
X65650000Y-65000000D03*
%TD*%
%TO.C,*%
X59650000Y-54450000D03*
%TD*%
%TO.C,*%
X66400000Y-65000000D03*
%TD*%
%TO.C,*%
X61900000Y-65000000D03*
%TD*%
D28*
%TO.C,C3*%
X48000000Y-54962500D03*
X48000000Y-57037500D03*
%TD*%
D29*
%TO.C,J3*%
X21850000Y-73600000D03*
D30*
X24390000Y-73600000D03*
X26930000Y-73600000D03*
X29470000Y-73600000D03*
X32010000Y-73600000D03*
X34550000Y-73600000D03*
%TD*%
D23*
%TO.C,*%
X59650000Y-55950000D03*
%TD*%
%TO.C,*%
X64900000Y-65000000D03*
%TD*%
%TO.C,*%
X59650000Y-59700000D03*
%TD*%
D31*
%TO.C,U5*%
X32200000Y-61650000D03*
D32*
X34500000Y-55350000D03*
D31*
X34500000Y-61650000D03*
X36800000Y-61650000D03*
%TD*%
D23*
%TO.C,*%
X59650000Y-65750000D03*
%TD*%
%TO.C,*%
X64150000Y-65000000D03*
%TD*%
%TO.C,*%
X59650000Y-56700000D03*
%TD*%
%TO.C,*%
X59650000Y-57450000D03*
%TD*%
D13*
%TO.C,xlr_left1*%
X64900000Y-71912500D03*
D14*
X65400000Y-71912500D03*
X65900000Y-71912500D03*
D15*
X66400000Y-71912500D03*
D16*
X66562500Y-71250000D03*
D17*
X66562500Y-70750000D03*
D18*
X66562500Y-70250000D03*
D19*
X66400000Y-69587500D03*
D14*
X65900000Y-69587500D03*
X65400000Y-69587500D03*
D20*
X64900000Y-69587500D03*
D21*
X64737500Y-70250000D03*
D17*
X64737500Y-70750000D03*
D22*
X64737500Y-71250000D03*
%TD*%
D23*
%TO.C,*%
X59650000Y-75550000D03*
%TD*%
%TO.C,*%
X59650000Y-62750000D03*
%TD*%
%TO.C,*%
X59650000Y-68750000D03*
%TD*%
%TO.C,*%
X59650000Y-64250000D03*
%TD*%
D10*
%TO.C,*%
X61850000Y-74475000D03*
%TD*%
D23*
%TO.C,*%
X59650000Y-71050000D03*
%TD*%
%TO.C,*%
X65650000Y-65000000D03*
%TD*%
%TO.C,*%
X59650000Y-73300000D03*
%TD*%
%TO.C,*%
X59650000Y-69550000D03*
%TD*%
%TO.C,*%
X59650000Y-63500000D03*
%TD*%
D33*
%TO.C,R1*%
X48000000Y-62800000D03*
X48000000Y-64800000D03*
%TD*%
D23*
%TO.C,*%
X59650000Y-58950000D03*
%TD*%
%TO.C,*%
X59650000Y-65000000D03*
%TD*%
%TO.C,*%
X67150000Y-65000000D03*
%TD*%
D24*
%TO.C,C4*%
X33637500Y-64200000D03*
X31562500Y-64200000D03*
%TD*%
D34*
%TO.C,U4*%
X40025000Y-54695000D03*
X40025000Y-55965000D03*
X40025000Y-57235000D03*
X40025000Y-58505000D03*
X45175000Y-58505000D03*
X45175000Y-57235000D03*
X45175000Y-55965000D03*
X45175000Y-54695000D03*
%TD*%
D23*
%TO.C,*%
X63400000Y-65000000D03*
%TD*%
%TO.C,*%
X59650000Y-74800000D03*
%TD*%
%TO.C,*%
X59650000Y-55200000D03*
%TD*%
D29*
%TO.C,J4*%
X57625000Y-64770000D03*
D30*
X57625000Y-67310000D03*
D10*
X57625000Y-69850000D03*
%TD*%
D35*
%TO.C,REF\u002A\u002A*%
X46425000Y-73950000D03*
D36*
X47875000Y-73950000D03*
%TD*%
D23*
%TO.C,*%
X59650000Y-72550000D03*
%TD*%
D10*
%TO.C,*%
X53125000Y-73800000D03*
%TD*%
%TO.C,J4*%
X61850000Y-71950000D03*
D30*
X61850000Y-69410000D03*
D29*
X61850000Y-66870000D03*
%TD*%
D23*
%TO.C,*%
X61150000Y-65000000D03*
%TD*%
D10*
%TO.C,J4*%
X61725000Y-60800000D03*
D30*
X61725000Y-58260000D03*
D29*
X61725000Y-55720000D03*
%TD*%
D23*
%TO.C,*%
X59650000Y-61950000D03*
%TD*%
%TO.C,*%
X59650000Y-61200000D03*
%TD*%
%TO.C,*%
X59650000Y-68000000D03*
%TD*%
%TO.C,*%
X59650000Y-66500000D03*
%TD*%
D10*
%TO.C,*%
X64375000Y-66875000D03*
%TD*%
D29*
%TO.C,J2*%
X21925000Y-69775000D03*
D30*
X21925000Y-67235000D03*
X24465000Y-69775000D03*
X24465000Y-67235000D03*
X27005000Y-69775000D03*
X27005000Y-67235000D03*
X29545000Y-69775000D03*
X29545000Y-67235000D03*
X32085000Y-69775000D03*
X32085000Y-67235000D03*
%TD*%
D23*
%TO.C,*%
X60400000Y-65000000D03*
%TD*%
D10*
%TO.C,*%
X50600000Y-73800000D03*
%TD*%
D37*
%TO.C,U1*%
X36085200Y-65400001D03*
X36085200Y-66199999D03*
X36085200Y-67000000D03*
X36085200Y-67800001D03*
X36085200Y-68599999D03*
X36085200Y-69400000D03*
X36085200Y-70199999D03*
X36085200Y-70999999D03*
D38*
X37400001Y-72314800D03*
X38199999Y-72314800D03*
X39000000Y-72314800D03*
X39800001Y-72314800D03*
X40599999Y-72314800D03*
X41400000Y-72314800D03*
X42199999Y-72314800D03*
X42999999Y-72314800D03*
D37*
X44314800Y-70999999D03*
X44314800Y-70200001D03*
X44314800Y-69400000D03*
X44314800Y-68599999D03*
X44314800Y-67800001D03*
X44314800Y-67000000D03*
X44314800Y-66200001D03*
X44314800Y-65400001D03*
D38*
X42999999Y-64085200D03*
X42200001Y-64085200D03*
X41400000Y-64085200D03*
X40599999Y-64085200D03*
X39800001Y-64085200D03*
X39000000Y-64085200D03*
X38200001Y-64085200D03*
X37400001Y-64085200D03*
%TD*%
D23*
%TO.C,*%
X59650000Y-58200000D03*
%TD*%
%TO.C,*%
X67900000Y-65000000D03*
%TD*%
D10*
%TO.C,*%
X61725000Y-63325000D03*
%TD*%
D23*
%TO.C,*%
X59650000Y-60450000D03*
%TD*%
D10*
%TO.C,*%
X64250000Y-55725000D03*
%TD*%
D23*
%TO.C,*%
X59650000Y-74050000D03*
%TD*%
M02*
