M48
; DRILL file {KiCad (6.0.2-0)} date Thursday, October 19, 2023 at 05:34:13 PM
; FORMAT={-:-/ absolute / inch / decimal}
; #@! TF.CreationDate,2023-10-19T17:34:14-05:00
; #@! TF.GenerationSoftware,Kicad,Pcbnew,(6.0.2-0)
; #@! TF.FileFunction,Plated,1,2,PTH
FMAT,2
INCH
; #@! TA.AperFunction,Plated,PTH,ViaDrill
T1C0.0157
; #@! TA.AperFunction,Plated,PTH,ComponentDrill
T2C0.0157
; #@! TA.AperFunction,Plated,PTH,ComponentDrill
T3C0.0236
; #@! TA.AperFunction,Plated,PTH,ComponentDrill
T4C0.0394
%
G90
G05
T1
X1.2677Y-2.3543
X1.4094Y-2.5197
X1.4488Y-2.3543
X1.4733Y-2.6457
X1.5276Y-2.4567
X1.6457Y-2.2047
X1.6693Y-2.5906
X1.6693Y-2.7795
X1.7165Y-2.1575
X1.7165Y-2.2992
X1.748Y-2.5217
X1.752Y-2.8524
X1.8061Y-2.4675
X1.812Y-2.7303
X1.8189Y-2.6378
X1.9528Y-2.252
X1.9528Y-2.4724
X1.9528Y-2.5512
X2.0236Y-2.7402
X2.1457Y-2.6969
X2.2283Y-2.3307
X2.5246Y-2.7205
X2.5344Y-2.9321
X2.5379Y-2.2653
X2.5591Y-2.4409
X2.5591Y-2.8819
X2.6319Y-2.4616
T2
X0.877Y-2.438
X0.877Y-2.4911
X0.9104Y-2.438
X0.9104Y-2.4911
X0.9439Y-2.438
X0.9439Y-2.4911
X0.9774Y-2.438
X0.9774Y-2.4911
X1.0108Y-2.438
X1.0108Y-2.4911
X1.0443Y-2.438
X1.0443Y-2.4911
X1.0778Y-2.438
X1.0778Y-2.4911
X1.1112Y-2.438
X1.1112Y-2.4911
T4
X0.8602Y-2.8976
X0.8632Y-2.647
X0.8632Y-2.747
X0.9602Y-2.8976
X0.9632Y-2.647
X0.9632Y-2.747
X1.0602Y-2.8976
X1.0632Y-2.647
X1.0632Y-2.747
X1.1602Y-2.8976
X1.1632Y-2.647
X1.1632Y-2.747
X1.2602Y-2.8976
X1.2632Y-2.647
X1.2632Y-2.747
X1.3602Y-2.8976
X1.9921Y-2.9055
X2.0915Y-2.9055
X2.2687Y-2.55
X2.2687Y-2.65
X2.2687Y-2.75
X2.2687Y-2.8494
X2.4301Y-2.1937
X2.4301Y-2.2937
X2.4301Y-2.3937
X2.4301Y-2.4931
X2.435Y-2.6327
X2.435Y-2.7327
X2.435Y-2.8327
X2.435Y-2.9321
X2.5295Y-2.1939
X2.5344Y-2.6329
T3
G00X0.8238Y-2.3352
M15
G01X0.8238Y-2.3037
M16
G05
G00X0.8238Y-2.4821
M15
G01X0.8238Y-2.423
M16
G05
G00X1.1644Y-2.3352
M15
G01X1.1644Y-2.3037
M16
G05
G00X1.1644Y-2.4821
M15
G01X1.1644Y-2.423
M16
G05
T0
M30
